<?xml version="1.0" encoding="UTF-8" standalone="no"?>
<!-- Created with Inkscape (http://www.inkscape.org/) -->

<svg
   version="1.1"
   id="svg1"
   width="351.689"
   height="180.72"
   viewBox="0 0 351.68899 180.72"
   sodipodi:docname="4_comportment_model_atracurium.svg"
   inkscape:version="1.3.2 (091e20e, 2023-11-25, custom)"
   xmlns:inkscape="http://www.inkscape.org/namespaces/inkscape"
   xmlns:sodipodi="http://sodipodi.sourceforge.net/DTD/sodipodi-0.dtd"
   xmlns="http://www.w3.org/2000/svg"
   xmlns:svg="http://www.w3.org/2000/svg">
  <defs
     id="defs1" />
  <sodipodi:namedview
     id="namedview1"
     pagecolor="#ffffff"
     bordercolor="#666666"
     borderopacity="1.0"
     inkscape:showpageshadow="2"
     inkscape:pageopacity="0.0"
     inkscape:pagecheckerboard="0"
     inkscape:deskcolor="#d1d1d1"
     showgrid="false"
     inkscape:zoom="2.3792341"
     inkscape:cx="191.23801"
     inkscape:cy="84.270815"
     inkscape:window-width="1680"
     inkscape:window-height="987"
     inkscape:window-x="-8"
     inkscape:window-y="-8"
     inkscape:window-maximized="1"
     inkscape:current-layer="svg1">
    <inkscape:page
       x="0"
       y="0"
       inkscape:label="1"
       id="page1"
       width="351.689"
       height="180.72"
       margin="0"
       bleed="0" />
  </sodipodi:namedview>
  <rect
     style="fill:#ffffff;stroke:#ffffff;stroke-width:5"
     id="rect1"
     width="353.05478"
     height="183.25224"
     x="-1.2609099"
     y="-1.2609099" />
  <!-- White background rectangle -->
  <g
     id="g1"
     inkscape:groupmode="layer"
     inkscape:label="1">
    <path
       id="path1"
       d="M 138.73963,39.731556 H 61.759582 c -2.934574,0 -5.31348,2.378893 -5.31348,5.313479 v 30.10872 c 0,2.934586 2.378906,5.31348 5.31348,5.31348 h 76.980048 c 2.93457,0 5.31348,-2.378894 5.31348,-5.31348 v -30.10872 c 0,-2.934586 -2.37891,-5.313479 -5.31348,-5.313479 z"
       style="fill:#79add2;fill-opacity:1;fill-rule:nonzero;stroke:#000000;stroke-width:0.531333;stroke-linecap:butt;stroke-linejoin:miter;stroke-miterlimit:10;stroke-dasharray:none;stroke-opacity:1" />
    <g
       id="g2"
       aria-label="Blood(x&#10;1&#10;)&#10;V&#10;1&#10;,Cl&#10;1"
       transform="matrix(1.3333333,0,0,1.3333333,68.844274,55.316728)">
      <path
         id="path2"
         d="m 2.2145859,-3.6446953 v -2.4492188 c 0,-0.328125 0.011719,-0.3984375 0.4804688,-0.3984375 h 1.2421875 c 0.9609375,0 1.3125,0.84375 1.3125,1.3710938 0,0.6328125 -0.4921875,1.4765625 -1.59375,1.4765625 z m 2.34375,0.09375 c 0.9726563,-0.1992188 1.6523438,-0.8320313 1.6523438,-1.5703125 0,-0.8671875 -0.9140625,-1.6875 -2.203125,-1.6875 H 0.36302344 v 0.3164062 h 0.234375 c 0.76171876,0 0.78515626,0.1054688 0.78515626,0.46875 v 5.25000004 c 0,0.3515625 -0.023437,0.46875 -0.78515626,0.46875 h -0.234375 V -1.640625e-4 H 4.2653672 c 1.3242187,0 2.2148437,-0.8906249975 2.2148437,-1.8281250375 0,-0.8671875 -0.8085937,-1.6054687 -1.921875,-1.7226562 z m -0.609375,3.24609374 H 2.6950547 c -0.46875,0 -0.4804688,-0.0703125 -0.4804688,-0.3984375 V -3.4220391 h 1.875 c 0.984375,0 1.3945313,0.9257813 1.3945313,1.59375 0,0.703125 -0.515625,1.52343754 -1.5351563,1.52343754 z m 4.866211,-6.60937504 -1.4296875,0.1054688 v 0.3164062 c 0.703125,0 0.7734375,0.070312 0.7734375,0.5507813 v 5.17968749 c 0,0.45703125 -0.1054688,0.45703125 -0.7734375,0.45703125 V -1.640625e-4 C 7.7136094,-0.01188281 8.2409531,-0.03532031 8.4870469,-0.03532031 c 0.2578125,0 0.7382812,0.0234375 1.1132812,0.0351562475 V -0.30485156 c -0.6679687,0 -0.7851562,0 -0.7851562,-0.45703125 z m 5.6953121,4.78125 c 0,-1.2773437 -0.996093,-2.3320312 -2.191406,-2.3320312 -1.253906,0 -2.214844,1.0898437 -2.214844,2.3320312 0,1.28906254 1.03125,2.23828129 2.203125,2.23828129 1.207032,0 2.203125,-0.97265625 2.203125,-2.23828129 z m -2.191406,1.99218754 c -0.433594,0 -0.867187,-0.2109375 -1.136719,-0.66796875 -0.257812,-0.43359379 -0.257812,-1.04296879 -0.257812,-1.40624999 0,-0.3867188 0,-0.9257813 0.246094,-1.359375 0.269531,-0.4570313 0.738281,-0.6679688 1.136718,-0.6679688 0.433594,0 0.867188,0.2226563 1.125,0.6445313 0.257813,0.4335937 0.257813,1.0078125 0.257813,1.3828125 0,0.3632812 0,0.9023437 -0.222656,1.33593749 -0.222657,0.4453125 -0.65625,0.73828125 -1.148438,0.73828125 z m 7.453125,-1.99218754 c 0,-1.2773437 -0.996094,-2.3320312 -2.191406,-2.3320312 -1.253906,0 -2.214844,1.0898437 -2.214844,2.3320312 0,1.28906254 1.03125,2.23828129 2.203125,2.23828129 1.207031,0 2.203125,-0.97265625 2.203125,-2.23828129 z m -2.191406,1.99218754 c -0.433594,0 -0.867188,-0.2109375 -1.136719,-0.66796875 -0.257812,-0.43359379 -0.257812,-1.04296879 -0.257812,-1.40624999 0,-0.3867188 0,-0.9257813 0.246093,-1.359375 0.269532,-0.4570313 0.738282,-0.6679688 1.136719,-0.6679688 0.433594,0 0.867188,0.2226563 1.125,0.6445313 0.257813,0.4335937 0.257813,1.0078125 0.257813,1.3828125 0,0.3632812 0,0.9023437 -0.222657,1.33593749 -0.222656,0.4453125 -0.65625,0.73828125 -1.148437,0.73828125 z m 6.547851,-0.41015625 v 0.65625 L 25.593492,-1.640625e-4 V -0.30485156 c -0.703125,0 -0.773437,-0.0703125 -0.773437,-0.5625 V -6.9142266 l -1.441407,0.1054688 v 0.3164062 c 0.703125,0 0.785157,0.070312 0.785157,0.5507813 v 2.15625 c -0.292969,-0.3632813 -0.726563,-0.6210938 -1.265625,-0.6210938 -1.171875,0 -2.214844,0.984375 -2.214844,2.2617188 0,1.26562499 0.972656,2.24999999 2.109375,2.24999999 0.644531,0 1.089844,-0.33984375 1.335937,-0.65625 z m 0,-2.67187499 v 2.0507812 c 0,0.17578129 0,0.19921879 -0.105468,0.36328129 -0.304688,0.48046875 -0.75,0.703125 -1.183594,0.703125 -0.445313,0 -0.796875,-0.2578125 -1.042969,-0.64453125 -0.257812,-0.41015624 -0.292969,-0.97265624 -0.292969,-1.38281254 0,-0.3632812 0.02344,-0.9609375 0.316407,-1.4179687 0.210937,-0.3046875 0.585937,-0.6328125 1.125,-0.6328125 0.351562,0 0.761718,0.1523437 1.078125,0.5976562 0.105468,0.1640625 0.105468,0.1875 0.105468,0.3632813 z m 8.361329,5.6132812 c 0,-0.035156 0,-0.046875 -0.164063,-0.2226562 -1.242187,-1.25390626 -1.570312,-3.12890626 -1.570312,-4.6640625 0,-1.7226563 0.386718,-3.4570313 1.605468,-4.7109375 0.128907,-0.1171875 0.128907,-0.1289063 0.128907,-0.1640625 0,-0.070312 -0.03516,-0.1054688 -0.09375,-0.1054688 -0.105469,0 -0.996094,0.6796875 -1.582032,1.9453125 -0.515625,1.1015625 -0.632812,2.203125 -0.632812,3.0351563 0,0.7851562 0.117187,1.99218749 0.65625,3.11718749 0.597656,1.21875001 1.453125,1.87500001 1.558594,1.87500001 0.05859,0 0.09375,-0.035156 0.09375,-0.1054688 z m 0,0"
         style="fill:#000000;fill-opacity:1;fill-rule:nonzero;stroke:none" />
      <path
         id="path3"
         d="m 36.39818,-3.0118828 c 0.05859,-0.2578125 0.292968,-1.171875 0.984375,-1.171875 0.04687,0 0.292968,0 0.503906,0.1289062 -0.28125,0.046875 -0.480469,0.3046875 -0.480469,0.5390625 0,0.1640625 0.105469,0.3515625 0.375,0.3515625 0.222656,0 0.539063,-0.1875 0.539063,-0.5859375 0,-0.515625 -0.585938,-0.65625 -0.925782,-0.65625 -0.574218,0 -0.925781,0.5273438 -1.042968,0.7617188 -0.257813,-0.65625 -0.785157,-0.7617188 -1.078125,-0.7617188 -1.042969,0 -1.605469,1.2890625 -1.605469,1.5351563 0,0.1054687 0.105469,0.1054687 0.117187,0.1054687 0.08203,0 0.117188,-0.023437 0.128907,-0.1171875 0.339843,-1.0546875 0.996093,-1.3007812 1.335937,-1.3007812 0.1875,0 0.539063,0.09375 0.539063,0.6679687 0,0.3046875 -0.164063,0.9726563 -0.539063,2.3671875 -0.152344,0.62109379 -0.503906,1.04296879 -0.949219,1.04296879 -0.05859,0 -0.28125,0 -0.492187,-0.12890625 0.246094,-0.0585938 0.46875,-0.26953125 0.46875,-0.5390625 0,-0.26953124 -0.222656,-0.35156254 -0.375,-0.35156254 -0.292969,0 -0.539063,0.25781254 -0.539063,0.57421879 0,0.45703125 0.492188,0.65625 0.9375,0.65625 0.65625,0 1.007813,-0.69140625 1.042969,-0.75 0.117188,0.36328125 0.480469,0.75 1.078125,0.75 1.019531,0 1.59375,-1.27734379 1.59375,-1.53515629 0,-0.09375 -0.09375,-0.09375 -0.128906,-0.09375 -0.08203,0 -0.105469,0.035156 -0.128906,0.1054688 -0.328125,1.06640624 -0.996094,1.31249999 -1.324219,1.31249999 -0.386719,0 -0.539063,-0.328125 -0.539063,-0.65625 0,-0.22265625 0.05859,-0.44531249 0.164063,-0.87890629 z m 0,0"
         style="fill:#000000;fill-opacity:1;fill-rule:nonzero;stroke:none" />
      <path
         id="path4"
         d="m 41.097398,-2.9357109 c 0,-0.1875 -0.01172,-0.1992188 -0.210937,-0.1992188 -0.445313,0.4335938 -1.078125,0.4453125 -1.359375,0.4453125 v 0.2460938 c 0.164062,0 0.621094,0 1.007812,-0.1875 v 3.55078121 c 0,0.23437499 0,0.32812499 -0.691406,0.32812499 h -0.269531 v 0.2460938 c 0.128906,-0.011719 0.984375,-0.023437 1.242187,-0.023437 0.210938,0 1.089844,0.011719 1.242188,0.023437 V 1.2478828 h -0.257813 c -0.703125,0 -0.703125,-0.09375 -0.703125,-0.32812499 z m 0,0"
         style="fill:#000000;fill-opacity:1;fill-rule:nonzero;stroke:none" />
      <path
         id="path5"
         d="m 46.115953,-2.4962578 c 0,-0.7734375 -0.117187,-1.9804688 -0.65625,-3.1054688 -0.597656,-1.21875 -1.464844,-1.875 -1.558594,-1.875 -0.05859,0 -0.105468,0.046875 -0.105468,0.1054688 0,0.035156 0,0.046875 0.199218,0.234375 0.972657,0.984375 1.535157,2.5664062 1.535157,4.640625 0,1.71093749 -0.363282,3.45703124 -1.59375,4.7226562 -0.140625,0.1171875 -0.140625,0.1289063 -0.140625,0.1640625 0,0.058594 0.04687,0.1054688 0.105468,0.1054688 0.09375,0 0.996094,-0.6796875 1.582032,-1.94531251 0.503906,-1.1015625 0.632812,-2.20312499 0.632812,-3.04687499 z m 0,0"
         style="fill:#000000;fill-opacity:1;fill-rule:nonzero;stroke:none" />
      <path
         id="path6"
         d="m 14.821031,6.2840156 c 0.480469,-0.7734375 0.902344,-0.8085937 1.277344,-0.8203125 0.117188,-0.011719 0.128906,-0.1875 0.128906,-0.1875 0,-0.082031 -0.05859,-0.1289062 -0.128906,-0.1289062 -0.257812,0 -0.550781,0.035156 -0.820312,0.035156 -0.328125,0 -0.667969,-0.035156 -0.984375,-0.035156 -0.05859,0 -0.1875,0 -0.1875,0.1992187 0,0.1054688 0.08203,0.1171875 0.152343,0.1171875 0.269532,0.011719 0.457032,0.1171875 0.457032,0.328125 0,0.1523438 -0.140625,0.3632813 -0.140625,0.375 L 11.516344,11.030109 10.836656,5.7566719 c 0,-0.1640625 0.222657,-0.2929688 0.679688,-0.2929688 0.140625,0 0.257812,0 0.257812,-0.1992187 0,-0.09375 -0.08203,-0.1171875 -0.140625,-0.1171875 -0.398437,0 -0.832031,0.035156 -1.242187,0.035156 -0.175781,0 -0.363281,-0.011719 -0.5390627,-0.011719 -0.1875,0 -0.375,-0.023437 -0.5390625,-0.023437 -0.070312,0 -0.1875,0 -0.1875,0.1992187 0,0.1171875 0.082031,0.1171875 0.2460937,0.1171875 0.5507813,0 0.5625,0.082031 0.5976563,0.3398438 l 0.7851562,6.1406251 c 0.03516,0.199219 0.07031,0.234375 0.199219,0.234375 0.164062,0 0.199219,-0.05859 0.28125,-0.1875 z m 0,0"
         style="fill:#000000;fill-opacity:1;fill-rule:nonzero;stroke:none" />
      <path
         id="path7"
         d="m 16.70482,9.0203437 c 0,-0.1875 -0.01172,-0.1992187 -0.210937,-0.1992187 -0.445313,0.4335937 -1.078125,0.4453125 -1.359375,0.4453125 v 0.2460937 c 0.164062,0 0.621094,0 1.007812,-0.1875 v 3.5507808 c 0,0.234375 0,0.328125 -0.691406,0.328125 h -0.269531 v 0.246094 c 0.128906,-0.01172 0.984375,-0.02344 1.242187,-0.02344 0.210938,0 1.089844,0.01172 1.242188,0.02344 v -0.246094 h -0.257813 c -0.703125,0 -0.703125,-0.09375 -0.703125,-0.328125 z m 0,0"
         style="fill:#000000;fill-opacity:1;fill-rule:nonzero;stroke:none" />
      <path
         id="path8"
         d="m 20.870836,11.944172 c 0,-0.65625 -0.257813,-1.042969 -0.644531,-1.042969 -0.328125,0 -0.527344,0.246094 -0.527344,0.527344 0,0.269531 0.199219,0.527344 0.527344,0.527344 0.117187,0 0.246093,-0.03516 0.351562,-0.128907 0.02344,-0.02344 0.03516,-0.03516 0.04687,-0.03516 0.01172,0 0.02344,0.01172 0.02344,0.152344 0,0.738281 -0.351563,1.335937 -0.679688,1.664062 -0.105469,0.105469 -0.105469,0.128907 -0.105469,0.164063 0,0.07031 0.04687,0.105469 0.09375,0.105469 0.117188,0 0.914063,-0.761719 0.914063,-1.933594 z m 9.972656,-6.9140626 c 0,-0.023437 -0.02344,-0.09375 -0.105469,-0.09375 -0.03516,0 -0.04687,0.011719 -0.152343,0.1171875 l -0.703125,0.7617187 c -0.08203,-0.140625 -0.539063,-0.8789062 -1.652344,-0.8789062 -2.214844,0 -4.453125,2.203125 -4.453125,4.5117187 0,1.6406249 1.171875,2.7304689 2.695312,2.7304689 0.867188,0 1.617188,-0.398438 2.144532,-0.855469 0.9375,-0.820312 1.101562,-1.7226561 1.101562,-1.7578124 0,-0.1054687 -0.105469,-0.1054687 -0.117187,-0.1054687 -0.05859,0 -0.117188,0.023437 -0.128907,0.1054687 -0.09375,0.2929688 -0.316406,0.9960934 -1.007812,1.5703124 -0.691406,0.5625 -1.3125,0.726563 -1.839844,0.726563 -0.890625,0 -1.945312,-0.515625 -1.945312,-2.0625004 0,-0.5742187 0.210937,-2.1914062 1.207031,-3.3515625 0.609375,-0.703125 1.535156,-1.2070312 2.425781,-1.2070312 1.019531,0 1.605469,0.7734375 1.605469,1.921875 0,0.3984375 -0.03516,0.4101562 -0.03516,0.5039062 0,0.1054688 0.117187,0.1054688 0.152343,0.1054688 0.128907,0 0.128907,-0.023437 0.175782,-0.1992188 z m 2.824219,0.1171875 c 0,0 0,-0.1054688 -0.128906,-0.1054688 -0.222657,0 -0.949219,0.082031 -1.207032,0.1054688 -0.08203,0 -0.199218,0.011719 -0.199218,0.1992187 0,0.1171875 0.105468,0.1171875 0.257812,0.1171875 0.46875,0 0.480469,0.082031 0.480469,0.1640625 l -0.02344,0.1992188 -1.253906,4.9804686 c -0.03516,0.117188 -0.05859,0.1875 -0.05859,0.339844 0,0.574219 0.445313,0.914062 0.914063,0.914062 0.328125,0 0.574219,-0.199218 0.75,-0.550781 0.175781,-0.386719 0.292969,-0.960937 0.292969,-0.984375 0,-0.09375 -0.09375,-0.09375 -0.117188,-0.09375 -0.105469,0 -0.117187,0.03516 -0.140625,0.175781 -0.175781,0.644532 -0.363281,1.242188 -0.761719,1.242188 -0.292968,0 -0.292968,-0.328125 -0.292968,-0.457031 0,-0.246094 0.01172,-0.292969 0.05859,-0.480469 z m 0,0"
         style="fill:#000000;fill-opacity:1;fill-rule:nonzero;stroke:none" />
      <path
         id="path9"
         d="m 36.409898,9.0203437 c 0,-0.1875 -0.01172,-0.1992187 -0.210937,-0.1992187 -0.445313,0.4335937 -1.078125,0.4453125 -1.359375,0.4453125 v 0.2460937 c 0.164062,0 0.621094,0 1.007812,-0.1875 v 3.5507808 c 0,0.234375 0,0.328125 -0.691406,0.328125 h -0.269531 v 0.246094 c 0.128906,-0.01172 0.984375,-0.02344 1.242187,-0.02344 0.210938,0 1.089844,0.01172 1.242188,0.02344 v -0.246094 h -0.257813 c -0.703125,0 -0.703125,-0.09375 -0.703125,-0.328125 z m 0,0"
         style="fill:#000000;fill-opacity:1;fill-rule:nonzero;stroke:none" />
    </g>
    <path
       id="path10"
       d="m 292.8192,39.731556 h -82.77315 c -2.93458,0 -5.31348,2.378893 -5.31348,5.313479 v 30.10872 c 0,2.934586 2.3789,5.31348 5.31348,5.31348 h 82.77315 c 2.93458,0 5.31348,-2.378894 5.31348,-5.31348 v -30.10872 c 0,-2.934586 -2.3789,-5.313479 -5.31348,-5.313479 z"
       style="fill:#ffb26e;fill-opacity:1;fill-rule:nonzero;stroke:#000000;stroke-width:0.531333;stroke-linecap:butt;stroke-linejoin:miter;stroke-miterlimit:10;stroke-dasharray:none;stroke-opacity:1" />
    <g
       id="g10"
       aria-label="Muscle(x&#10;2&#10;)&#10;V&#10;2&#10;,Cl&#10;2"
       transform="matrix(1.3333333,0,0,1.3333333,217.1296,55.316728)">
      <path
         id="path11"
         d="M 2.4019531,-6.5861016 C 2.3082031,-6.8087578 2.2847656,-6.8087578 2.0503906,-6.8087578 H 0.36289063 v 0.3164062 h 0.24609375 c 0.76171872,0 0.78515622,0.1054688 0.78515622,0.46875 v 4.9804688 c 0,0.26953124 0,0.73828124 -1.03124997,0.73828124 V -1.640625e-4 C 0.71445313,-0.01188281 1.2066406,-0.03532031 1.5347656,-0.03532031 c 0.328125,0 0.8203125,0.0234375 1.1601563,0.0351562475 V -0.30485156 c -1.0195313,0 -1.0195313,-0.46875 -1.0195313,-0.73828124 v -5.3671875 h 0.011719 l 2.4023437,6.18749999 c 0.046875,0.12890625 0.09375,0.2226562475 0.1992188,0.2226562475 0.1054687,0 0.1289062,-0.0820312475 0.1757812,-0.1874999975 L 6.9136719,-6.4923516 h 0.011719 v 5.71875004 c 0,0.3515625 -0.023437,0.46875 -0.7851562,0.46875 H 5.8941406 v 0.3046874975 c 0.375,-0.0351562475 1.0429688,-0.0351562475 1.4414063,-0.0351562475 0.3867187,0 1.0546875,0 1.4179687,0.0351562475 V -0.30485156 h -0.234375 c -0.7734375,0 -0.7851562,-0.1171875 -0.7851562,-0.46875 V -6.0236016 c 0,-0.3632812 0.011719,-0.46875 0.7851562,-0.46875 h 0.234375 V -6.8087578 H 7.0777344 c -0.2695313,0 -0.2695313,0.011719 -0.3398438,0.1992187 L 4.5582031,-1.0079766 Z M 13.02207,-0.78532031 v 0.890625 L 14.463477,-1.640625e-4 V -0.30485156 c -0.703125,0 -0.785157,-0.0703125 -0.785157,-0.5625 V -4.4064141 l -1.453125,0.1171875 v 0.3046875 c 0.691407,0 0.773438,0.070312 0.773438,0.5625 v 1.7695313 c 0,0.86718749 -0.480469,1.54687499 -1.207031,1.54687499 -0.832032,0 -0.878907,-0.46875 -0.878907,-0.99609379 v -3.3046875 l -1.4648434,0.1171875 v 0.3046875 c 0.7851564,0 0.7851564,0.035156 0.7851564,0.9140625 v 1.5 c 0,0.77343754 0,1.67578129 1.511719,1.67578129 0.550781,0 0.996093,-0.26953125 1.277343,-0.890625 z m 3.720703,-1.14843749 c 0.222657,0.035156 1.03125,0.1992187 1.03125,0.9140625 0,0.51562499 -0.351562,0.91406249 -1.125,0.91406249 -0.832031,0 -1.195312,-0.57421875 -1.382812,-1.41796879 -0.03516,-0.1289062 -0.03516,-0.1757812 -0.140625,-0.1757812 -0.128906,0 -0.128906,0.070312 -0.128906,0.2578125 v 1.31249999 c 0,0.1640625 0,0.234375 0.105468,0.234375 0.05859,0 0.07031,0 0.257813,-0.19921875 0.01172,-0.01171875 0.01172,-0.03515625 0.199219,-0.22265625 0.433593,0.421875 0.878906,0.421875 1.089843,0.421875 1.148438,0 1.605469,-0.66796875 1.605469,-1.38281249 0,-0.5273438 -0.292969,-0.8203125 -0.421875,-0.9492188 -0.328125,-0.3164062 -0.714844,-0.3984375 -1.136719,-0.46875 -0.550781,-0.1171875 -1.21875,-0.2460937 -1.21875,-0.8203125 0,-0.3515625 0.257813,-0.7617187 1.113282,-0.7617187 1.101562,0 1.148437,0.9023437 1.171875,1.2070312 0,0.09375 0.09375,0.09375 0.117187,0.09375 0.128906,0 0.128906,-0.046875 0.128906,-0.2460937 v -0.9960938 c 0,-0.1757812 0,-0.2460937 -0.117187,-0.2460937 -0.04687,0 -0.07031,0 -0.199219,0.1171875 -0.02344,0.046875 -0.128906,0.1289062 -0.164062,0.1640625 -0.375,-0.28125 -0.785157,-0.28125 -0.9375,-0.28125 -1.21875,0 -1.59375,0.6679687 -1.59375,1.2304687 0,0.3398438 0.164062,0.6210938 0.433593,0.84375 0.316407,0.2578125 0.597657,0.3164063 1.3125,0.4570313 z m 3.014649,-0.234375 c 0,-1.6289063 0.820312,-2.0507813 1.347656,-2.0507813 0.09375,0 0.714844,0.011719 1.066406,0.375 -0.410156,0.023437 -0.46875,0.328125 -0.46875,0.4570313 0,0.2578125 0.1875,0.4570312 0.457032,0.4570312 0.257812,0 0.457031,-0.1640625 0.457031,-0.46875 0,-0.6796875 -0.75,-1.0664062 -1.523438,-1.0664062 -1.242187,0 -2.15625,1.078125 -2.15625,2.3085937 0,1.27734379 0.984375,2.26171879 2.144532,2.26171879 1.335937,0 1.652343,-1.19531249 1.652343,-1.28906249 0,-0.1054688 -0.105468,-0.1054688 -0.128906,-0.1054688 -0.09375,0 -0.117187,0.046875 -0.128906,0.1054688 -0.292969,0.92578124 -0.9375,1.04296874 -1.3125,1.04296874 -0.527344,0 -1.40625,-0.421875 -1.40625,-2.02734374 z m 5.024414,-4.7460938 -1.429688,0.1054688 v 0.3164062 c 0.703125,0 0.773438,0.070312 0.773438,0.5507813 v 5.17968749 c 0,0.45703125 -0.105469,0.45703125 -0.773438,0.45703125 V -1.640625e-4 C 23.680273,-0.01188281 24.207617,-0.03532031 24.453711,-0.03532031 c 0.257812,0 0.738281,0.0234375 1.113281,0.0351562475 V -0.30485156 c -0.667969,0 -0.785156,0 -0.785156,-0.45703125 z m 2.124023,4.40625 c 0.05859,-1.4882812 0.902344,-1.734375 1.242188,-1.734375 1.019531,0 1.125,1.3476563 1.125,1.734375 z m -0.01172,0.2109375 h 2.789062 c 0.210938,0 0.246094,0 0.246094,-0.2109375 0,-0.984375 -0.539063,-1.9570312 -1.78125,-1.9570312 -1.160156,0 -2.074219,1.03125 -2.074219,2.2734375 0,1.33593749 1.042969,2.29687499 2.191406,2.29687499 1.21875,0 1.664063,-1.1015625 1.664063,-1.28906249 0,-0.1054688 -0.08203,-0.1171875 -0.128906,-0.1171875 -0.09375,0 -0.117188,0.058594 -0.128907,0.140625 -0.351562,1.01953124 -1.253906,1.01953124 -1.347656,1.01953124 -0.503906,0 -0.902344,-0.29296875 -1.125,-0.66796875 C 26.894141,-1.2892266 26.894141,-1.9454766 26.894141,-2.2970391 Z m 9.93457,4.6875 c 0,-0.035156 0,-0.046875 -0.164063,-0.2226562 -1.242187,-1.25390626 -1.570312,-3.12890626 -1.570312,-4.6640625 0,-1.7226563 0.386719,-3.4570313 1.605469,-4.7109375 0.128906,-0.1171875 0.128906,-0.1289063 0.128906,-0.1640625 0,-0.070312 -0.03516,-0.1054688 -0.09375,-0.1054688 -0.105469,0 -0.996094,0.6796875 -1.582031,1.9453125 -0.515625,1.1015625 -0.632813,2.203125 -0.632813,3.0351563 0,0.7851562 0.117188,1.99218749 0.65625,3.11718749 0.597656,1.21875001 1.453125,1.87500001 1.558594,1.87500001 0.05859,0 0.09375,-0.035156 0.09375,-0.1054688 z m 0,0"
         style="fill:#000000;fill-opacity:1;fill-rule:nonzero;stroke:none" />
      <path
         id="path12"
         d="m 40.742773,-3.0118828 c 0.05859,-0.2578125 0.292969,-1.171875 0.984375,-1.171875 0.04687,0 0.292969,0 0.503907,0.1289062 -0.28125,0.046875 -0.480469,0.3046875 -0.480469,0.5390625 0,0.1640625 0.105469,0.3515625 0.375,0.3515625 0.222656,0 0.539062,-0.1875 0.539062,-0.5859375 0,-0.515625 -0.585937,-0.65625 -0.925781,-0.65625 -0.574219,0 -0.925781,0.5273438 -1.042969,0.7617188 -0.257812,-0.65625 -0.785156,-0.7617188 -1.078125,-0.7617188 -1.042968,0 -1.605468,1.2890625 -1.605468,1.5351563 0,0.1054687 0.105468,0.1054687 0.117187,0.1054687 0.08203,0 0.117188,-0.023437 0.128906,-0.1171875 0.339844,-1.0546875 0.996094,-1.3007812 1.335938,-1.3007812 0.1875,0 0.539062,0.09375 0.539062,0.6679687 0,0.3046875 -0.164062,0.9726563 -0.539062,2.3671875 -0.152344,0.62109379 -0.503906,1.04296879 -0.949219,1.04296879 -0.05859,0 -0.28125,0 -0.492187,-0.12890625 0.246093,-0.0585938 0.46875,-0.26953125 0.46875,-0.5390625 0,-0.26953124 -0.222657,-0.35156254 -0.375,-0.35156254 -0.292969,0 -0.539063,0.25781254 -0.539063,0.57421879 0,0.45703125 0.492188,0.65625 0.9375,0.65625 0.65625,0 1.007813,-0.69140625 1.042969,-0.75 0.117187,0.36328125 0.480469,0.75 1.078125,0.75 1.019531,0 1.59375,-1.27734379 1.59375,-1.53515629 0,-0.09375 -0.09375,-0.09375 -0.128906,-0.09375 -0.08203,0 -0.105469,0.035156 -0.128907,0.1054688 -0.328125,1.06640624 -0.996093,1.31249999 -1.324218,1.31249999 -0.386719,0 -0.539063,-0.328125 -0.539063,-0.65625 0,-0.22265625 0.05859,-0.44531249 0.164063,-0.87890629 z m 0,0"
         style="fill:#000000;fill-opacity:1;fill-rule:nonzero;stroke:none" />
      <path
         id="path13"
         d="m 46.625586,0.22835156 h -0.234375 c -0.02344,0.15234375 -0.08203,0.5625 -0.175781,0.6328125 -0.05859,0.0351563 -0.597657,0.0351563 -0.691407,0.0351563 h -1.289062 c 0.738281,-0.64453125 0.984375,-0.84375 1.394531,-1.171875 0.515625,-0.41015625 0.996094,-0.84375006 0.996094,-1.49999996 0,-0.8437501 -0.738281,-1.3593751 -1.628906,-1.3593751 -0.867188,0 -1.453125,0.609375 -1.453125,1.2421876 0,0.3632812 0.304687,0.3984375 0.375,0.3984375 0.164062,0 0.375,-0.1171875 0.375,-0.375 0,-0.1289063 -0.05859,-0.3632813 -0.421875,-0.3632813 0.222656,-0.5039063 0.691406,-0.65625 1.019531,-0.65625 0.703125,0 1.066406,0.5507812 1.066406,1.1132813 0,0.609375 -0.433594,1.08984371 -0.65625,1.33593746 l -1.6875,1.66406254 c -0.07031,0.058594 -0.07031,0.070312 -0.07031,0.2695312 h 2.882812 z m 0,0"
         style="fill:#000000;fill-opacity:1;fill-rule:nonzero;stroke:none" />
      <path
         id="path14"
         d="m 50.460547,-2.4962578 c 0,-0.7734375 -0.117188,-1.9804688 -0.65625,-3.1054688 -0.597656,-1.21875 -1.464844,-1.875 -1.558594,-1.875 -0.05859,0 -0.105469,0.046875 -0.105469,0.1054688 0,0.035156 0,0.046875 0.199219,0.234375 0.972656,0.984375 1.535156,2.5664062 1.535156,4.640625 0,1.71093749 -0.363281,3.45703124 -1.59375,4.7226562 -0.140625,0.1171875 -0.140625,0.1289063 -0.140625,0.1640625 0,0.058594 0.04687,0.1054688 0.105469,0.1054688 0.09375,0 0.996094,-0.6796875 1.582031,-1.94531251 0.503907,-1.1015625 0.632813,-2.20312499 0.632813,-3.04687499 z m 0,0"
         style="fill:#000000;fill-opacity:1;fill-rule:nonzero;stroke:none" />
      <path
         id="path15"
         d="m 16.991797,6.2840156 c 0.480469,-0.7734375 0.902344,-0.8085937 1.277344,-0.8203125 0.117187,-0.011719 0.128906,-0.1875 0.128906,-0.1875 0,-0.082031 -0.05859,-0.1289062 -0.128906,-0.1289062 -0.257813,0 -0.550782,0.035156 -0.820313,0.035156 -0.328125,0 -0.667969,-0.035156 -0.984375,-0.035156 -0.05859,0 -0.1875,0 -0.1875,0.1992187 0,0.1054688 0.08203,0.1171875 0.152344,0.1171875 0.269531,0.011719 0.457031,0.1171875 0.457031,0.328125 0,0.1523438 -0.140625,0.3632813 -0.140625,0.375 L 13.687109,11.030109 13.007422,5.7566719 c 0,-0.1640625 0.222656,-0.2929688 0.679687,-0.2929688 0.140625,0 0.257813,0 0.257813,-0.1992187 0,-0.09375 -0.08203,-0.1171875 -0.140625,-0.1171875 -0.398438,0 -0.832031,0.035156 -1.242188,0.035156 -0.175781,0 -0.363281,-0.011719 -0.539062,-0.011719 -0.1875,0 -0.375,-0.023437 -0.539063,-0.023437 -0.07031,0 -0.1875,0 -0.1875,0.1992187 0,0.1171875 0.08203,0.1171875 0.246094,0.1171875 0.550781,0 0.5625,0.082031 0.597656,0.3398438 l 0.785157,6.1406251 c 0.03516,0.199219 0.07031,0.234375 0.199218,0.234375 0.164063,0 0.199219,-0.05859 0.28125,-0.1875 z m 0,0"
         style="fill:#000000;fill-opacity:1;fill-rule:nonzero;stroke:none" />
      <path
         id="path16"
         d="m 20.062109,12.184406 h -0.234375 c -0.02344,0.152344 -0.08203,0.5625 -0.175781,0.632813 -0.05859,0.03516 -0.597656,0.03516 -0.691406,0.03516 h -1.289063 c 0.738282,-0.644531 0.984375,-0.84375 1.394532,-1.171875 0.515625,-0.410156 0.996093,-0.84375 0.996093,-1.5 0,-0.84375 -0.738281,-1.359375 -1.628906,-1.359375 -0.867187,0 -1.453125,0.609375 -1.453125,1.242187 0,0.363282 0.304688,0.398438 0.375,0.398438 0.164063,0 0.375,-0.117188 0.375,-0.375 0,-0.1289063 -0.05859,-0.3632813 -0.421875,-0.3632813 0.222656,-0.5039062 0.691406,-0.65625 1.019531,-0.65625 0.703125,0 1.066407,0.5507813 1.066407,1.1132813 0,0.609375 -0.433594,1.089844 -0.65625,1.335937 l -1.6875,1.664063 c -0.07031,0.05859 -0.07031,0.07031 -0.07031,0.269531 h 2.882813 z m 0,0"
         style="fill:#000000;fill-opacity:1;fill-rule:nonzero;stroke:none" />
      <path
         id="path17"
         d="m 23.041602,11.944172 c 0,-0.65625 -0.257813,-1.042969 -0.644532,-1.042969 -0.328125,0 -0.527343,0.246094 -0.527343,0.527344 0,0.269531 0.199218,0.527344 0.527343,0.527344 0.117188,0 0.246094,-0.03516 0.351563,-0.128907 0.02344,-0.02344 0.03516,-0.03516 0.04687,-0.03516 0.01172,0 0.02344,0.01172 0.02344,0.152344 0,0.738281 -0.351562,1.335937 -0.679687,1.664062 -0.105469,0.105469 -0.105469,0.128907 -0.105469,0.164063 0,0.07031 0.04687,0.105469 0.09375,0.105469 0.117188,0 0.914063,-0.761719 0.914063,-1.933594 z m 9.975586,-6.9140626 c 0,-0.023437 -0.02344,-0.09375 -0.105469,-0.09375 -0.03516,0 -0.04687,0.011719 -0.152344,0.1171875 L 32.05625,5.8152656 c -0.08203,-0.140625 -0.539062,-0.8789062 -1.652344,-0.8789062 -2.214843,0 -4.453125,2.203125 -4.453125,4.5117187 0,1.6406249 1.171875,2.7304689 2.695313,2.7304689 0.867187,0 1.617187,-0.398438 2.144531,-0.855469 0.9375,-0.820312 1.101563,-1.7226561 1.101563,-1.7578124 0,-0.1054687 -0.105469,-0.1054687 -0.117188,-0.1054687 -0.05859,0 -0.117187,0.023437 -0.128906,0.1054687 -0.09375,0.2929688 -0.316406,0.9960934 -1.007813,1.5703124 -0.691406,0.5625 -1.3125,0.726563 -1.839843,0.726563 -0.890625,0 -1.945313,-0.515625 -1.945313,-2.0625004 0,-0.5742187 0.210938,-2.1914062 1.207031,-3.3515625 0.609375,-0.703125 1.535157,-1.2070312 2.425782,-1.2070312 1.019531,0 1.605468,0.7734375 1.605468,1.921875 0,0.3984375 -0.03516,0.4101562 -0.03516,0.5039062 0,0.1054688 0.117188,0.1054688 0.152344,0.1054688 0.128906,0 0.128906,-0.023437 0.175781,-0.1992188 z m 2.824218,0.1171875 c 0,0 0,-0.1054688 -0.128906,-0.1054688 -0.222656,0 -0.949219,0.082031 -1.207031,0.1054688 -0.08203,0 -0.199219,0.011719 -0.199219,0.1992187 0,0.1171875 0.105469,0.1171875 0.257813,0.1171875 0.46875,0 0.480468,0.082031 0.480468,0.1640625 l -0.02344,0.1992188 -1.253906,4.9804686 c -0.03516,0.117188 -0.05859,0.1875 -0.05859,0.339844 0,0.574219 0.445312,0.914062 0.914062,0.914062 0.328125,0 0.574219,-0.199218 0.75,-0.550781 0.175782,-0.386719 0.292969,-0.960937 0.292969,-0.984375 0,-0.09375 -0.09375,-0.09375 -0.117187,-0.09375 -0.105469,0 -0.117188,0.03516 -0.140625,0.175781 -0.175782,0.644532 -0.363282,1.242188 -0.761719,1.242188 -0.292969,0 -0.292969,-0.328125 -0.292969,-0.457031 0,-0.246094 0.01172,-0.292969 0.05859,-0.480469 z m 0,0"
         style="fill:#000000;fill-opacity:1;fill-rule:nonzero;stroke:none" />
      <path
         id="path18"
         d="m 39.764258,12.184406 h -0.234375 c -0.02344,0.152344 -0.08203,0.5625 -0.175781,0.632813 -0.05859,0.03516 -0.597657,0.03516 -0.691407,0.03516 h -1.289062 c 0.738281,-0.644531 0.984375,-0.84375 1.394531,-1.171875 0.515625,-0.410156 0.996094,-0.84375 0.996094,-1.5 0,-0.84375 -0.738281,-1.359375 -1.628906,-1.359375 -0.867188,0 -1.453125,0.609375 -1.453125,1.242187 0,0.363282 0.304687,0.398438 0.375,0.398438 0.164062,0 0.375,-0.117188 0.375,-0.375 0,-0.1289063 -0.05859,-0.3632813 -0.421875,-0.3632813 0.222656,-0.5039062 0.691406,-0.65625 1.019531,-0.65625 0.703125,0 1.066406,0.5507813 1.066406,1.1132813 0,0.609375 -0.433594,1.089844 -0.65625,1.335937 l -1.6875,1.664063 c -0.07031,0.05859 -0.07031,0.07031 -0.07031,0.269531 h 2.882812 z m 0,0"
         style="fill:#000000;fill-opacity:1;fill-rule:nonzero;stroke:none" />
    </g>
    <path
       id="path19"
       d="m 144.31877,52.540368 h 59.61679"
       style="fill:none;stroke:#000000;stroke-width:0.531333;stroke-linecap:butt;stroke-linejoin:miter;stroke-miterlimit:10;stroke-dasharray:none;stroke-opacity:1" />
    <path
       id="path20"
       d="m 201.43823,49.352315 c 0.50479,1.912866 1.62967,2.81612 2.76299,3.188053 -1.13332,0.371933 -2.2582,1.275187 -2.76299,3.188053"
       style="fill:none;stroke:#000000;stroke-width:0.531333;stroke-linecap:round;stroke-linejoin:round;stroke-miterlimit:10;stroke-dasharray:none;stroke-opacity:1" />
    <g
       id="g20"
       aria-label="k&#10;12"
       transform="matrix(1.3333333,0,0,1.3333333,165.30694,45.855035)">
      <path
         id="path21"
         d="m 2.86075,-6.8081909 c 0,0 0,-0.1054688 -0.1289063,-0.1054688 -0.234375,0 -0.9609375,0.082031 -1.21875,0.1054688 -0.082031,0 -0.1875,0.011719 -0.1875,0.1992187 0,0.1171875 0.09375,0.1171875 0.234375,0.1171875 0.4804688,0 0.5039063,0.070312 0.5039063,0.1640625 l -0.035156,0.1992188 -1.4414062,5.74218746 c -0.0351563,0.140625 -0.0351563,0.15234375 -0.0351563,0.22265625 0,0.22265625 0.19921875,0.26953125 0.28125,0.26953125 0.12890625,0 0.2812499,-0.08203125 0.3398437,-0.2109375 0.058594,-0.0820313 0.5039062,-1.92187496 0.5625,-2.17968746 0.3398437,0.035156 1.1601563,0.1875 1.1601563,0.8554687 0,0.070312 0,0.1054688 -0.035156,0.1992188 -0.023437,0.1289062 -0.035156,0.24609371 -0.035156,0.35156246 0,0.5859375 0.3984375,0.984375 0.9140625,0.984375 0.2929688,0 0.5625,-0.15234375 0.7851563,-0.52734375 0.2460937,-0.43359375 0.3632812,-0.98437501 0.3632812,-1.00781251 0,-0.09375 -0.09375,-0.09375 -0.1289062,-0.09375 -0.09375,0 -0.1054688,0.035156 -0.140625,0.1757813 -0.1992188,0.72656246 -0.421875,1.24218746 -0.8671875,1.24218746 -0.1875,0 -0.3164063,-0.1171875 -0.3164063,-0.46875 0,-0.17578125 0.046875,-0.3984375 0.082031,-0.56249996 0.035156,-0.1640625 0.035156,-0.2109375 0.035156,-0.3046875 0,-0.65625 -0.6210937,-0.9375 -1.4648437,-1.0546875 C 2.392,-2.6714722 2.7084062,-2.9878784 2.9427812,-3.2222534 3.42325,-3.7495972 3.8802812,-4.1831909 4.36075,-4.1831909 c 0.058594,0 0.070312,0 0.09375,0.011719 0.1171875,0.023437 0.1289062,0.023437 0.2109375,0.082031 0.023437,0 0.023437,0.011719 0.035156,0.035156 -0.4804687,0.035156 -0.5625,0.421875 -0.5625,0.5390625 0,0.1640625 0.1054688,0.3515625 0.375,0.3515625 0.2578125,0 0.5507813,-0.2226562 0.5507813,-0.609375 0,-0.3046875 -0.234375,-0.6328125 -0.6796875,-0.6328125 -0.28125,0 -0.7382813,0.082031 -1.453125,0.8789063 -0.3398438,0.375 -0.7265625,0.7734375 -1.1015625,0.9257812 z m 0,0"
         style="fill:#000000;fill-opacity:1;fill-rule:nonzero;stroke:none" />
      <path
         id="path22"
         d="m 7.5189531,-2.9351441 c 0,-0.1875 -0.011719,-0.1992187 -0.2109375,-0.1992187 -0.4453125,0.4335937 -1.078125,0.4453125 -1.359375,0.4453125 v 0.2460937 c 0.1640625,0 0.6210938,0 1.0078125,-0.1875 v 3.55078129 c 0,0.23437501 0,0.32812501 -0.6914062,0.32812501 H 5.9955156 v 0.2460937 c 0.1289063,-0.011719 0.984375,-0.023437 1.2421875,-0.023437 0.2109375,0 1.0898438,0.011719 1.2421875,0.023437 V 1.2484497 H 8.2220781 c -0.703125,0 -0.703125,-0.09375 -0.703125,-0.32812501 z m 5.1562499,3.16406254 h -0.234375 c -0.02344,0.15234375 -0.08203,0.5625 -0.175781,0.6328125 -0.05859,0.0351563 -0.597656,0.0351563 -0.691406,0.0351563 h -1.289063 c 0.738281,-0.64453125 0.984375,-0.84375 1.394531,-1.171875 0.515625,-0.41015625 0.996094,-0.84374994 0.996094,-1.49999994 0,-0.84375 -0.738281,-1.359375 -1.628906,-1.359375 -0.867188,0 -1.4531251,0.609375 -1.4531251,1.2421875 0,0.3632812 0.3046875,0.3984375 0.375,0.3984375 0.1640621,0 0.3750001,-0.1171875 0.3750001,-0.375 0,-0.1289063 -0.05859,-0.3632814 -0.4218751,-0.3632814 0.2226561,-0.5039061 0.6914061,-0.65625 1.0195311,-0.65625 0.703125,0 1.066406,0.5507814 1.066406,1.1132814 0,0.609375 -0.433593,1.08984369 -0.65625,1.33593744 L 9.6634844,1.2250122 c -0.070312,0.058594 -0.070312,0.070312 -0.070312,0.2695312 h 2.8828126 z m 0,0"
         style="fill:#000000;fill-opacity:1;fill-rule:nonzero;stroke:none" />
    </g>
    <path
       id="path23"
       d="M 204.46688,67.658421 H 144.85011"
       style="fill:none;stroke:#000000;stroke-width:0.531333;stroke-linecap:butt;stroke-linejoin:miter;stroke-miterlimit:10;stroke-dasharray:none;stroke-opacity:1" />
    <path
       id="path24"
       d="m 147.34743,70.846474 c -0.50479,-1.912866 -1.62967,-2.81612 -2.76299,-3.188053 1.13332,-0.371933 2.2582,-1.275187 2.76299,-3.188053"
       style="fill:none;stroke:#000000;stroke-width:0.531333;stroke-linecap:round;stroke-linejoin:round;stroke-miterlimit:10;stroke-dasharray:none;stroke-opacity:1" />
    <g
       id="g24"
       aria-label="k&#10;21"
       transform="matrix(1.3333333,0,0,1.3333333,165.30694,81.575755)">
      <path
         id="path25"
         d="m 2.86075,-6.8096684 c 0,0 0,-0.1054688 -0.1289063,-0.1054688 -0.234375,0 -0.9609375,0.082031 -1.21875,0.1054688 -0.082031,0 -0.1875,0.011719 -0.1875,0.1992187 0,0.1171875 0.09375,0.1171875 0.234375,0.1171875 0.4804688,0 0.5039063,0.070312 0.5039063,0.1640625 l -0.035156,0.1992188 -1.4414062,5.74218746 c -0.0351563,0.140625 -0.0351563,0.15234375 -0.0351563,0.22265625 0,0.22265625 0.19921875,0.26953125 0.28125,0.26953125 0.12890625,0 0.2812499,-0.08203125 0.3398437,-0.2109375 0.058594,-0.0820312 0.5039062,-1.92187496 0.5625,-2.17968746 0.3398437,0.035156 1.1601563,0.1875 1.1601563,0.8554687 0,0.070312 0,0.1054688 -0.035156,0.1992188 -0.023437,0.1289062 -0.035156,0.24609371 -0.035156,0.35156246 0,0.5859375 0.3984375,0.984375 0.9140625,0.984375 0.2929688,0 0.5625,-0.15234375 0.7851563,-0.52734375 0.2460937,-0.43359375 0.3632812,-0.98437501 0.3632812,-1.00781251 0,-0.09375 -0.09375,-0.09375 -0.1289062,-0.09375 -0.09375,0 -0.1054688,0.035156 -0.140625,0.1757813 -0.1992188,0.72656246 -0.421875,1.24218746 -0.8671875,1.24218746 -0.1875,0 -0.3164063,-0.1171875 -0.3164063,-0.46875 0,-0.17578125 0.046875,-0.3984375 0.082031,-0.56249996 0.035156,-0.1640625 0.035156,-0.2109375 0.035156,-0.3046875 0,-0.65625 -0.6210937,-0.9375 -1.4648437,-1.0546875 C 2.392,-2.6729497 2.7084062,-2.9893559 2.9427812,-3.2237309 3.42325,-3.7510747 3.8802812,-4.1846684 4.36075,-4.1846684 c 0.058594,0 0.070312,0 0.09375,0.011719 0.1171875,0.023437 0.1289062,0.023437 0.2109375,0.082031 0.023437,0 0.023437,0.011719 0.035156,0.035156 -0.4804687,0.035156 -0.5625,0.421875 -0.5625,0.5390625 0,0.1640625 0.1054688,0.3515625 0.375,0.3515625 0.2578125,0 0.5507813,-0.2226562 0.5507813,-0.609375 0,-0.3046875 -0.234375,-0.6328125 -0.6796875,-0.6328125 -0.28125,0 -0.7382813,0.082031 -1.453125,0.8789063 -0.3398438,0.375 -0.7265625,0.7734375 -1.1015625,0.9257812 z m 0,0"
         style="fill:#000000;fill-opacity:1;fill-rule:nonzero;stroke:none" />
      <path
         id="path26"
         d="m 8.7025469,0.22744094 h -0.234375 c -0.023437,0.15234375 -0.082031,0.5625 -0.1757813,0.6328125 -0.058594,0.0351563 -0.5976562,0.0351563 -0.6914062,0.0351563 H 6.3119219 c 0.7382812,-0.64453125 0.984375,-0.84375 1.3945312,-1.171875 0.515625,-0.41015625 0.9960938,-0.84374994 0.9960938,-1.49999994 0,-0.8437501 -0.7382813,-1.3593751 -1.6289063,-1.3593751 -0.8671875,0 -1.453125,0.609375 -1.453125,1.2421875 0,0.3632812 0.3046875,0.3984375 0.375,0.3984375 0.1640625,0 0.375,-0.1171875 0.375,-0.375 0,-0.1289063 -0.058594,-0.3632813 -0.421875,-0.3632813 0.2226563,-0.5039062 0.6914063,-0.65625 1.0195313,-0.65625 0.703125,0 1.0664062,0.5507813 1.0664062,1.1132813 0,0.609375 -0.4335937,1.08984379 -0.65625,1.33593754 l -1.6875,1.66406246 c -0.070312,0.058594 -0.070312,0.070312 -0.070312,0.2695312 h 2.882812 z M 11.491609,-2.9366216 c 0,-0.1875 -0.01172,-0.1992187 -0.210937,-0.1992187 -0.445313,0.4335937 -1.078125,0.4453125 -1.3593751,0.4453125 v 0.2460937 c 0.1640621,0 0.6210941,0 1.0078121,-0.1875 v 3.55078129 c 0,0.23437501 0,0.32812501 -0.691406,0.32812501 H 9.9681719 v 0.2460937 c 0.1289061,-0.011719 0.9843751,-0.023437 1.2421871,-0.023437 0.210938,0 1.089844,0.011719 1.242188,0.023437 V 1.2469722 h -0.257813 c -0.703125,0 -0.703125,-0.09375 -0.703125,-0.32812501 z m 0,0"
         style="fill:#000000;fill-opacity:1;fill-rule:nonzero;stroke:none" />
    </g>
    <path
       id="path27"
       d="M 119.14746,80.732901 V 116.26166"
       style="fill:none;stroke:#000000;stroke-width:0.531333;stroke-linecap:butt;stroke-linejoin:miter;stroke-miterlimit:10;stroke-dasharray:none;stroke-opacity:1" />
    <path
       id="path28"
       d="m 122.33551,113.76437 c -1.91286,0.50479 -2.81612,1.62967 -3.18805,2.76299 -0.37193,-1.13332 -1.27519,-2.2582 -3.18805,-2.76299"
       style="fill:none;stroke:#000000;stroke-width:0.531333;stroke-linecap:round;stroke-linejoin:round;stroke-miterlimit:10;stroke-dasharray:none;stroke-opacity:1" />
    <g
       id="g28"
       aria-label="k&#10;10"
       transform="matrix(1.3333333,0,0,1.3333333,123.84079,102.37806)">
      <path
         id="path29"
         d="m 2.8587975,-6.8078828 c 0,0 0,-0.1054688 -0.1289062,-0.1054688 -0.234375,0 -0.9609375,0.082031 -1.21875,0.1054688 -0.082031,0 -0.1875,0.011719 -0.1875,0.1992187 0,0.1171875 0.09375,0.1171875 0.234375,0.1171875 0.4804687,0 0.5039062,0.070312 0.5039062,0.1640625 L 2.0267663,-6.1281953 0.58536,-0.38600781 c -0.0351563,0.140625 -0.0351563,0.15234375 -0.0351563,0.22265625 0,0.22265625 0.19921875,0.26953125 0.28125,0.26953125 0.12890625,0 0.28125,-0.08203125 0.3398437,-0.2109375 0.058594,-0.0820313 0.5039064,-1.92187499 0.5625,-2.17968749 0.3398439,0.035156 1.1601563,0.1875 1.1601563,0.8554687 0,0.070312 0,0.1054688 -0.035156,0.1992188 -0.023437,0.1289062 -0.035156,0.24609374 -0.035156,0.35156249 0,0.5859375 0.3984375,0.984375 0.9140625,0.984375 0.2929687,0 0.5625,-0.15234375 0.7851562,-0.52734375 0.2460938,-0.43359375 0.3632813,-0.98437504 0.3632813,-1.00781254 0,-0.09375 -0.09375,-0.09375 -0.1289063,-0.09375 -0.09375,0 -0.1054687,0.035156 -0.140625,0.1757813 -0.1992187,0.72656249 -0.421875,1.24218749 -0.8671875,1.24218749 -0.1875,0 -0.3164062,-0.1171875 -0.3164062,-0.46875 0,-0.17578125 0.046875,-0.3984375 0.082031,-0.56249999 0.035156,-0.1640625 0.035156,-0.2109375 0.035156,-0.3046875 0,-0.65625 -0.6210938,-0.9375 -1.4648438,-1.0546875 0.3046875,-0.1757813 0.6210938,-0.4921875 0.8554688,-0.7265625 0.4804687,-0.5273438 0.9375,-0.9609375 1.4179686,-0.9609375 0.058594,0 0.070312,0 0.09375,0.011719 0.1171875,0.023437 0.1289063,0.023437 0.2109375,0.082031 0.023437,0 0.023437,0.011719 0.035156,0.035156 -0.4804688,0.035156 -0.5625,0.421875 -0.5625,0.5390625 0,0.1640625 0.1054687,0.3515625 0.375,0.3515625 0.2578125,0 0.5507812,-0.2226562 0.5507812,-0.609375 0,-0.3046875 -0.234375,-0.6328125 -0.6796875,-0.6328125 -0.28125,0 -0.7382811,0.082031 -1.4531249,0.8789063 -0.3398437,0.375 -0.7265625,0.7734375 -1.1015626,0.9257812 z m 0,0"
         style="fill:#000000;fill-opacity:1;fill-rule:nonzero;stroke:none" />
      <path
         id="path30"
         d="m 7.5199303,-2.9348359 c 0,-0.1875 -0.011719,-0.1992188 -0.2109375,-0.1992188 -0.4453125,0.4335938 -1.078125,0.4453125 -1.359375,0.4453125 v 0.2460938 c 0.1640625,0 0.6210938,0 1.0078125,-0.1875 v 3.55078121 c 0,0.23437499 0,0.32812499 -0.6914062,0.32812499 H 5.9964928 v 0.2460938 c 0.1289063,-0.011719 0.984375,-0.023437 1.2421875,-0.023437 0.2109375,0 1.0898438,0.011719 1.2421875,0.023437 V 1.2487578 H 8.2230553 c -0.703125,0 -0.703125,-0.09375 -0.703125,-0.32812499 z m 5.2353517,2.20312496 c 0,-0.76171876 -0.09375,-1.31249996 -0.410156,-1.80468746 -0.222657,-0.3164063 -0.644532,-0.5976563 -1.207032,-0.5976563 -1.6171871,0 -1.6171871,1.8984375 -1.6171871,2.40234376 0,0.50390625 0,2.36718754 1.6171871,2.36718754 1.617188,0 1.617188,-1.86328129 1.617188,-2.36718754 z M 11.138094,1.4362578 c -0.316406,0 -0.75,-0.1875 -0.890625,-0.76171874 -0.09375,-0.41015625 -0.09375,-0.984375 -0.09375,-1.5 0,-0.50390626 0,-1.03124996 0.105469,-1.41796876 0.152344,-0.5507812 0.597656,-0.6914062 0.878906,-0.6914062 0.375,0 0.738282,0.2226562 0.867188,0.6328125 0.105469,0.375 0.117187,0.8789062 0.117187,1.47656246 0,0.515625 0,1.04296875 -0.09375,1.4765625 C 11.888094,1.2839141 11.419344,1.4362578 11.138094,1.4362578 Z m 0,0"
         style="fill:#000000;fill-opacity:1;fill-rule:nonzero;stroke:none" />
    </g>
    <path
       id="path31"
       d="M 100.2496,38.934542 V 3.4057699"
       style="fill:none;stroke:#000000;stroke-width:0.531333;stroke-linecap:butt;stroke-linejoin:miter;stroke-miterlimit:10;stroke-dasharray:none;stroke-opacity:1" />
    <path
       id="path32"
       d="m 103.43766,36.437209 c -1.91287,0.504786 -2.81612,1.629666 -3.18806,2.762986 -0.371925,-1.13332 -1.275175,-2.2582 -3.188046,-2.762986"
       style="fill:none;stroke:#000000;stroke-width:0.531333;stroke-linecap:round;stroke-linejoin:round;stroke-miterlimit:10;stroke-dasharray:none;stroke-opacity:1" />
    <path
       id="path33"
       d="m 109.59783,23.546978 c 0.14063,0.546875 0.60938,0.890625 1.17188,0.890625 0.46875,0 0.76562,-0.296875 0.98437,-0.71875 0.23438,-0.484375 0.40625,-1.296875 0.40625,-1.328125 0,-0.125 -0.125,-0.125 -0.17187,-0.125 -0.125,0 -0.14063,0.04687 -0.1875,0.234376 -0.17188,0.749999 -0.4375,1.656249 -0.98438,1.656249 -0.28125,0 -0.42187,-0.171875 -0.42187,-0.609375 0,-0.296875 0.17187,-0.921874 0.26562,-1.390624 l 0.375,-1.4375 c 0.0469,-0.1875 0.17188,-0.703125 0.23438,-0.890625 0.0625,-0.3125 0.1875,-0.8125 0.1875,-0.890625 0,-0.25 -0.1875,-0.359375 -0.375,-0.359375 -0.0781,0 -0.42188,0 -0.51563,0.453125 -0.26562,0.96875 -0.84375,3.296874 -1,3.999999 -0.0156,0.0625 -0.54687,1.125 -1.51562,1.125 -0.6875,0 -0.82813,-0.609375 -0.82813,-1.09375 0,-0.749999 0.375,-1.796874 0.71875,-2.703124 0.15625,-0.40625 0.23438,-0.59375 0.23438,-0.84375 0,-0.59375 -0.4375,-1.09375 -1.09375,-1.09375 -1.26563,0 -1.75,1.9375 -1.75,2.046875 0,0.140625 0.125,0.140625 0.15625,0.140625 0.125,0 0.14062,-0.03125 0.20312,-0.25 0.34375,-1.15625 0.84375,-1.640625 1.34375,-1.640625 0.125,0 0.34375,0.01563 0.34375,0.4375 0,0.3125 -0.15625,0.703125 -0.23437,0.90625 -0.48438,1.3125 -0.76563,2.140624 -0.76563,2.78125 0,1.265624 0.90625,1.593749 1.625,1.593749 0.875,0 1.35938,-0.59375 1.59375,-0.890625 z m 0,0"
       style="fill:#000000;fill-opacity:1;fill-rule:nonzero;stroke:none;stroke-width:1.33333"
       aria-label="u" />
    <path
       id="path34"
       d="M 150.52819,137.58078 H 49.971022 c -2.934587,0 -5.31348,2.37888 -5.31348,5.31348 v 23.389 c 0,2.93459 2.378893,5.31347 5.31348,5.31347 H 150.52819 c 2.93458,0 5.31348,-2.37888 5.31348,-5.31347 v -23.389 c 0,-2.9346 -2.3789,-5.31348 -5.31348,-5.31348 z"
       style="fill:#e67d7e;fill-opacity:1;fill-rule:nonzero;stroke:#000000;stroke-width:0.531333;stroke-linecap:butt;stroke-linejoin:miter;stroke-miterlimit:10;stroke-dasharray:none;stroke-opacity:1" />
    <g
       id="g34"
       aria-label="Efectsite1(x&#10;es&#10;)"
       transform="matrix(1.3333333,0,0,1.3333333,49.085607,157.90873)">
      <path
         id="path35"
         d="m 1.3597578,-0.77228906 c 0,0.3515625 -0.023437,0.46875 -0.79687499,0.46875 h -0.234375 v 0.3046875 H 6.0824141 L 6.4925703,-2.5652578 H 6.2464766 C 6.0003828,-1.0301016 5.7660078,-0.30353906 4.0550703,-0.30353906 H 2.7308516 c -0.46875,0 -0.4921875,-0.0703125 -0.4921875,-0.3984375 V -3.3621328 h 0.9023437 c 0.9609375,0 1.078125,0.3164062 1.078125,1.1601562 H 4.4652266 V -4.8386953 H 4.2191328 c 0,0.8554687 -0.1171875,1.1601562 -1.078125,1.1601562 H 2.2386641 v -2.390625 c 0,-0.328125 0.023437,-0.3984375 0.4921875,-0.3984375 h 1.2890625 c 1.5234375,0 1.7929687,0.5507813 1.9453125,1.9335938 H 6.2113203 L 5.9417891,-6.7722891 H 0.32850781 v 0.3046875 h 0.234375 c 0.77343749,0 0.79687499,0.1171875 0.79687499,0.46875 z M 11.244523,-3.9832266 h 1.148438 v -0.3046875 h -1.183594 v -1.1601562 c 0,-0.890625 0.480469,-1.359375 0.925781,-1.359375 0.03516,0 0.1875,0 0.328125,0.070312 -0.117187,0.046875 -0.292968,0.1757812 -0.292968,0.421875 0,0.234375 0.152343,0.4335937 0.421875,0.4335937 0.292968,0 0.445312,-0.1992187 0.445312,-0.4453125 0,-0.3515625 -0.351562,-0.6914062 -0.914062,-0.6914062 -0.585938,0 -1.019532,0.375 -1.066407,0.4101562 -0.292968,-0.3632812 -0.855468,-0.4101562 -1.1249996,-0.4101562 -0.9375,0 -2.0976562,0.515625 -2.0976562,1.59375 v 1.1367187 H 7.0492109 v 0.3046875 h 0.7851563 v 3.22265629 c 0,0.45703125 -0.1054688,0.45703125 -0.7734375,0.45703125 v 0.3046875 c 0.328125,-0.01171875 0.8554687,-0.03515625 1.1015625,-0.03515625 0.2460937,0 0.7382812,0.0234375 1.1132812,0.03515625 v -0.3046875 c -0.6679687,0 -0.7851562,0 -0.7851562,-0.45703125 V -3.9832266 h 2.0976558 v 3.22265629 c 0,0.45703125 -0.117187,0.45703125 -0.7851558,0.45703125 v 0.3046875 c 0.3984378,-0.01171875 0.8671878,-0.03515625 1.1367188,-0.03515625 0.398437,0 0.867187,0 1.265625,0.03515625 v -0.3046875 h -0.210938 c -0.726562,0 -0.75,-0.1171875 -0.75,-0.46875 z M 8.4671797,-4.2879141 v -1.125 c 0,-0.9726562 0.8085937,-1.3945312 1.4648437,-1.3945312 0.4804686,0 0.7617186,0.1992187 0.7734376,0.1992187 -0.175781,0.023437 -0.375,0.1523438 -0.375,0.4335938 0,0.058594 0.01172,0.3046875 0.28125,0.3984375 -0.02344,0.1289062 -0.02344,0.2226562 -0.02344,0.3398437 v 1.1484375 z m 5.2382813,1.78125 c 0.05859,-1.4882812 0.902344,-1.734375 1.242187,-1.734375 1.019532,0 1.125,1.3476563 1.125,1.734375 z m -0.01172,0.2109375 h 2.789063 c 0.210937,0 0.246093,0 0.246093,-0.2109375 0,-0.984375 -0.539062,-1.9570312 -1.78125,-1.9570312 -1.160156,0 -2.074218,1.03125 -2.074218,2.2734375 0,1.33593749 1.042968,2.29687499 2.191406,2.29687499 1.21875,0 1.664062,-1.1015625 1.664062,-1.28906249 0,-0.1054688 -0.08203,-0.1171875 -0.128906,-0.1171875 -0.09375,0 -0.117187,0.058594 -0.128906,0.140625 -0.351563,1.01953124 -1.253906,1.01953124 -1.347656,1.01953124 -0.503907,0 -0.902344,-0.29296875 -1.125,-0.66796875 C 13.693742,-1.2879141 13.693742,-1.9441641 13.693742,-2.2957266 Z m 4.485352,0.1289063 c 0,-1.6289063 0.820312,-2.0507813 1.347656,-2.0507813 0.09375,0 0.714844,0.011719 1.066406,0.375 -0.410156,0.023437 -0.46875,0.328125 -0.46875,0.4570313 0,0.2578125 0.1875,0.4570312 0.457031,0.4570312 0.257813,0 0.457032,-0.1640625 0.457032,-0.46875 0,-0.6796875 -0.75,-1.0664062 -1.523438,-1.0664062 -1.242187,0 -2.15625,1.078125 -2.15625,2.3085937 0,1.27734379 0.984375,2.26171879 2.144531,2.26171879 1.335938,0 1.652344,-1.19531249 1.652344,-1.28906249 0,-0.1054688 -0.105469,-0.1054688 -0.128906,-0.1054688 -0.09375,0 -0.117188,0.046875 -0.128906,0.1054688 -0.292969,0.92578124 -0.9375,1.04296874 -1.3125,1.04296874 -0.527344,0 -1.40625,-0.421875 -1.40625,-2.02734374 z m 4.989258,-1.8164063 h 1.429687 v -0.3046875 h -1.429687 v -1.8398437 h -0.246094 c -0.01172,0.8203125 -0.316406,1.8867187 -1.289063,1.921875 v 0.2226562 h 0.84375 v 2.7539063 c 0,1.21874999 0.925782,1.33593749 1.289063,1.33593749 0.703125,0 0.984375,-0.703125 0.984375,-1.33593749 v -0.5742188 h -0.246094 v 0.5507813 c 0,0.73828124 -0.304687,1.11328124 -0.667969,1.11328124 -0.667968,0 -0.667968,-0.90234374 -0.667968,-1.07812504 z m 7.543945,2.0507813 c 0.222656,0.035156 1.03125,0.1992187 1.03125,0.9140625 0,0.51562499 -0.351563,0.91406249 -1.125,0.91406249 -0.832031,0 -1.195313,-0.57421875 -1.382813,-1.41796879 -0.03516,-0.1289062 -0.03516,-0.1757812 -0.140625,-0.1757812 -0.128906,0 -0.128906,0.070312 -0.128906,0.2578125 v 1.31249999 c 0,0.1640625 0,0.234375 0.105469,0.234375 0.05859,0 0.07031,0 0.257812,-0.19921875 0.01172,-0.01171875 0.01172,-0.03515625 0.199219,-0.22265625 0.433594,0.421875 0.878906,0.421875 1.089844,0.421875 1.148437,0 1.605469,-0.66796875 1.605469,-1.38281249 0,-0.5273438 -0.292969,-0.8203125 -0.421875,-0.9492188 -0.328125,-0.3164062 -0.714844,-0.3984375 -1.136719,-0.46875 -0.550781,-0.1171875 -1.21875,-0.2460937 -1.21875,-0.8203125 0,-0.3515625 0.257812,-0.7617187 1.113281,-0.7617187 1.101563,0 1.148438,0.9023437 1.171875,1.2070312 0,0.09375 0.09375,0.09375 0.117188,0.09375 0.128906,0 0.128906,-0.046875 0.128906,-0.2460937 v -0.9960938 c 0,-0.1757812 0,-0.2460937 -0.117188,-0.2460937 -0.04687,0 -0.07031,0 -0.199218,0.1171875 -0.02344,0.046875 -0.128907,0.1289062 -0.164063,0.1640625 -0.375,-0.28125 -0.785156,-0.28125 -0.9375,-0.28125 -1.21875,0 -1.59375,0.6679687 -1.59375,1.2304687 0,0.3398438 0.164063,0.6210938 0.433594,0.84375 0.316406,0.2578125 0.597656,0.3164063 1.3125,0.4570313 z m 3.612305,-2.4726563 -1.394532,0.1171875 v 0.3046875 c 0.65625,0 0.738282,0.058594 0.738282,0.5507813 v 2.67187499 c 0,0.45703125 -0.105469,0.45703125 -0.773438,0.45703125 v 0.3046875 c 0.316406,-0.01171875 0.855469,-0.03515625 1.101563,-0.03515625 0.339843,0 0.691406,0.0234375 1.03125,0.03515625 v -0.3046875 c -0.65625,0 -0.703125,-0.0585938 -0.703125,-0.4453125 z m 0.04687,-1.734375 c 0,-0.3164062 -0.246094,-0.5273437 -0.527344,-0.5273437 -0.316406,0 -0.527344,0.2695312 -0.527344,0.5273437 0,0.2695313 0.210938,0.5273438 0.527344,0.5273438 0.28125,0 0.527344,-0.1992188 0.527344,-0.5273438 z m 2.686523,2.15625 h 1.429687 V -4.2879141 H 37.058 v -1.8398437 h -0.246094 c -0.01172,0.8203125 -0.316406,1.8867187 -1.289062,1.921875 v 0.2226562 h 0.84375 v 2.7539063 c 0,1.21874999 0.925781,1.33593749 1.289062,1.33593749 0.703125,0 0.984375,-0.703125 0.984375,-1.33593749 v -0.5742188 h -0.246094 v 0.5507813 c 0,0.73828124 -0.304687,1.11328124 -0.667968,1.11328124 -0.667969,0 -0.667969,-0.90234374 -0.667969,-1.07812504 z m 3.263672,1.4765625 c 0.05859,-1.4882812 0.902344,-1.734375 1.242187,-1.734375 1.019532,0 1.125,1.3476563 1.125,1.734375 z m -0.01172,0.2109375 h 2.789063 c 0.210937,0 0.246093,0 0.246093,-0.2109375 0,-0.984375 -0.539062,-1.9570312 -1.78125,-1.9570312 -1.160156,0 -2.074218,1.03125 -2.074218,2.2734375 0,1.33593749 1.042968,2.29687499 2.191406,2.29687499 1.21875,0 1.664062,-1.1015625 1.664062,-1.28906249 0,-0.1054688 -0.08203,-0.1171875 -0.128906,-0.1171875 -0.09375,0 -0.117187,0.058594 -0.128906,0.140625 -0.351563,1.01953124 -1.253906,1.01953124 -1.347656,1.01953124 -0.503907,0 -0.902344,-0.29296875 -1.125,-0.66796875 C 40.309953,-1.2879141 40.309953,-1.9441641 40.309953,-2.2957266 Z m 9.583008,-4.078125 c 0,-0.234375 0,-0.2578125 -0.234375,-0.2578125 -0.609375,0.6328125 -1.488281,0.6328125 -1.804688,0.6328125 v 0.3164063 c 0.199219,0 0.785157,0 1.300782,-0.2578125 v 5.15624999 c 0,0.3515625 -0.03516,0.48046875 -0.925782,0.48046875 h -0.316406 v 0.3046875 c 0.351563,-0.03515625 1.207031,-0.03515625 1.605469,-0.03515625 0.398437,0 1.265625,0 1.617187,0.03515625 v -0.3046875 h -0.316406 c -0.902344,0 -0.925781,-0.1171875 -0.925781,-0.48046875 z m 8.663086,8.765625 c 0,-0.035156 0,-0.046875 -0.164063,-0.2226562 -1.242187,-1.25390626 -1.570312,-3.12890626 -1.570312,-4.6640625 0,-1.7226563 0.386719,-3.4570313 1.605469,-4.7109375 0.128906,-0.1171875 0.128906,-0.1289063 0.128906,-0.1640625 0,-0.070312 -0.03516,-0.1054688 -0.09375,-0.1054688 -0.105469,0 -0.996094,0.6796875 -1.582031,1.9453125 -0.515625,1.1015625 -0.632813,2.203125 -0.632813,3.0351563 0,0.7851562 0.117188,1.99218749 0.65625,3.11718749 0.597656,1.21875001 1.453125,1.87500001 1.558594,1.87500001 0.05859,0 0.09375,-0.035156 0.09375,-0.1054688 z m 0,0"
         style="fill:#000000;fill-opacity:1;fill-rule:nonzero;stroke:none" />
      <path
         id="path36"
         d="m 62.46718,-3.0105703 c 0.05859,-0.2578125 0.292968,-1.171875 0.984375,-1.171875 0.04687,0 0.292968,0 0.503906,0.1289062 -0.28125,0.046875 -0.480469,0.3046875 -0.480469,0.5390625 0,0.1640625 0.105469,0.3515625 0.375,0.3515625 0.222656,0 0.539063,-0.1875 0.539063,-0.5859375 0,-0.515625 -0.585938,-0.65625 -0.925782,-0.65625 -0.574218,0 -0.925781,0.5273438 -1.042968,0.7617188 -0.257813,-0.65625 -0.785157,-0.7617188 -1.078125,-0.7617188 -1.042969,0 -1.605469,1.2890625 -1.605469,1.5351563 0,0.1054687 0.105469,0.1054687 0.117187,0.1054687 0.08203,0 0.117188,-0.023437 0.128907,-0.1171875 0.339843,-1.0546875 0.996093,-1.3007812 1.335937,-1.3007812 0.1875,0 0.539063,0.09375 0.539063,0.6679687 0,0.3046875 -0.164063,0.9726563 -0.539063,2.3671875 -0.152344,0.62109379 -0.503906,1.04296879 -0.949219,1.04296879 -0.05859,0 -0.28125,0 -0.492187,-0.12890625 0.246094,-0.0585938 0.46875,-0.26953125 0.46875,-0.5390625 0,-0.26953124 -0.222656,-0.35156254 -0.375,-0.35156254 -0.292969,0 -0.539063,0.25781254 -0.539063,0.57421879 0,0.45703125 0.492188,0.65625 0.9375,0.65625 0.65625,0 1.007813,-0.69140625 1.042969,-0.75 0.117188,0.36328125 0.480469,0.75 1.078125,0.75 1.019531,0 1.59375,-1.27734379 1.59375,-1.53515629 0,-0.09375 -0.09375,-0.09375 -0.128906,-0.09375 -0.08203,0 -0.105469,0.035156 -0.128906,0.1054688 -0.328125,1.06640624 -0.996094,1.31249999 -1.324219,1.31249999 -0.386719,0 -0.539063,-0.328125 -0.539063,-0.65625 0,-0.22265625 0.05859,-0.44531249 0.164063,-0.87890629 z m 0,0"
         style="fill:#000000;fill-opacity:1;fill-rule:nonzero;stroke:none" />
      <path
         id="path37"
         d="m 66.392961,-0.09846094 c 0.199219,0 0.75,-0.01171875 1.125,-0.140625 0.515625,-0.1875 0.609375,-0.515625 0.609375,-0.7265625 0,-0.38671876 -0.375,-0.60937496 -0.855469,-0.60937496 -0.84375,0 -1.96875,0.63281246 -1.96875,1.82812496 0,0.703125 0.433594,1.31250004 1.253906,1.31250004 1.183594,0 1.734375,-0.69140629 1.734375,-0.78515629 0,-0.046875 -0.07031,-0.1171875 -0.128906,-0.1171875 -0.03516,0 -0.04687,0.0117188 -0.105469,0.0703125 -0.550781,0.63281249 -1.359375,0.63281249 -1.488281,0.63281249 -0.421875,0 -0.691406,-0.28125 -0.691406,-0.84374999 0,-0.09375 0,-0.234375 0.08203,-0.62109375 z m -0.375,-0.1875 c 0.28125,-1.01953126 1.054687,-1.10156246 1.253906,-1.10156246 0.304688,0 0.5625,0.1523437 0.5625,0.42187496 0,0.6796875 -1.183594,0.6796875 -1.476562,0.6796875 z m 5.595703,-0.84374996 c -0.175781,0.046875 -0.292969,0.18749996 -0.292969,0.32812496 0,0.1640625 0.140625,0.22265625 0.234375,0.22265625 0.07031,0 0.339844,-0.0351563 0.339844,-0.3984375 0,-0.44531251 -0.503906,-0.59765621 -0.925781,-0.59765621 -1.089844,0 -1.289063,0.79687496 -1.289063,1.00781246 0,0.2578125 0.152344,0.43359375 0.246094,0.515625 0.175781,0.140625 0.304688,0.1640625 0.785156,0.24609375 0.152344,0.0351563 0.597657,0.1171875 0.597657,0.46875 0,0.1171875 -0.08203,0.37499999 -0.375,0.55078129 -0.269532,0.1523437 -0.609375,0.1523437 -0.691407,0.1523437 -0.28125,0 -0.679687,-0.058594 -0.84375,-0.2929687 0.234375,-0.023437 0.386719,-0.19921879 0.386719,-0.39843754 0,-0.1640625 -0.128906,-0.2578125 -0.269531,-0.2578125 -0.199219,0 -0.410156,0.1640625 -0.410156,0.46875 0,0.42187504 0.445312,0.67968754 1.125,0.67968754 1.289062,0 1.523437,-0.87890629 1.523437,-1.14843754 0,-0.64453125 -0.703125,-0.7734375 -0.960937,-0.8203125 -0.07031,-0.0117188 -0.246094,-0.0351563 -0.28125,-0.0585938 -0.257813,-0.046875 -0.386719,-0.1875 -0.386719,-0.33984375 0,-0.1640625 0.128906,-0.35156251 0.28125,-0.44531251 0.1875,-0.1289063 0.433594,-0.140625 0.550781,-0.140625 0.140625,0 0.503906,0.023437 0.65625,0.2578126 z m 0,0"
         style="fill:#000000;fill-opacity:1;fill-rule:nonzero;stroke:none" />
      <path
         id="path38"
         d="m 75.756242,-2.4949453 c 0,-0.7734375 -0.117187,-1.9804688 -0.65625,-3.1054688 -0.597656,-1.21875 -1.464844,-1.875 -1.558594,-1.875 -0.05859,0 -0.105468,0.046875 -0.105468,0.1054688 0,0.035156 0,0.046875 0.199218,0.234375 0.972657,0.984375 1.535157,2.5664062 1.535157,4.640625 0,1.71093749 -0.363282,3.45703124 -1.59375,4.7226562 -0.140625,0.1171875 -0.140625,0.1289063 -0.140625,0.1640625 0,0.058594 0.04687,0.1054688 0.105468,0.1054688 0.09375,0 0.996094,-0.6796875 1.582032,-1.94531251 0.503906,-1.1015625 0.632812,-2.20312499 0.632812,-3.04687499 z m 0,0"
         style="fill:#000000;fill-opacity:1;fill-rule:nonzero;stroke:none" />
    </g>
    <path
       id="path39"
       d="M 301.7112,137.58078 H 201.15401 c -2.93458,0 -5.31348,2.37888 -5.31348,5.31348 v 23.389 c 0,2.93459 2.3789,5.31347 5.31348,5.31347 H 301.7112 c 2.9346,0 5.31348,-2.37888 5.31348,-5.31347 v -23.389 c 0,-2.9346 -2.37888,-5.31348 -5.31348,-5.31348 z"
       style="fill:#e67d7e;fill-opacity:1;fill-rule:nonzero;stroke:#000000;stroke-width:0.531333;stroke-linecap:butt;stroke-linejoin:miter;stroke-miterlimit:10;stroke-dasharray:none;stroke-opacity:1" />
    <g
       id="g39"
       aria-label="Efectsite2(x&#10;es&#10;)"
       transform="matrix(1.3333333,0,0,1.3333333,200.26694,157.90873)">
      <path
         id="path40"
         d="m 1.3585234,-0.77228906 c 0,0.3515625 -0.023437,0.46875 -0.79687496,0.46875 h -0.234375 v 0.3046875 H 6.0811797 L 6.4913359,-2.5652578 H 6.2452422 C 5.9991484,-1.0301016 5.7647734,-0.30353906 4.0538359,-0.30353906 H 2.7296172 c -0.46875,0 -0.4921875,-0.0703125 -0.4921875,-0.3984375 V -3.3621328 h 0.9023437 c 0.9609375,0 1.078125,0.3164062 1.078125,1.1601562 H 4.4639922 V -4.8386953 H 4.2178984 c 0,0.8554687 -0.1171875,1.1601562 -1.078125,1.1601562 H 2.2374297 v -2.390625 c 0,-0.328125 0.023437,-0.3984375 0.4921875,-0.3984375 h 1.2890625 c 1.5234375,0 1.7929687,0.5507813 1.9453125,1.9335938 H 6.2100859 L 5.9405547,-6.7722891 H 0.32727344 v 0.3046875 h 0.234375 c 0.77343746,0 0.79687496,0.1171875 0.79687496,0.46875 z M 11.246219,-3.9832266 h 1.148437 v -0.3046875 h -1.183594 v -1.1601562 c 0,-0.890625 0.480469,-1.359375 0.925782,-1.359375 0.03516,0 0.1875,0 0.328125,0.070312 -0.117188,0.046875 -0.292969,0.1757812 -0.292969,0.421875 0,0.234375 0.152344,0.4335937 0.421875,0.4335937 0.292969,0 0.445312,-0.1992187 0.445312,-0.4453125 0,-0.3515625 -0.351562,-0.6914062 -0.914062,-0.6914062 -0.585938,0 -1.019531,0.375 -1.066406,0.4101562 -0.292969,-0.3632812 -0.855469,-0.4101562 -1.1250003,-0.4101562 -0.9375,0 -2.0976562,0.515625 -2.0976562,1.59375 v 1.1367187 H 7.0509062 v 0.3046875 h 0.7851563 v 3.22265629 c 0,0.45703125 -0.1054688,0.45703125 -0.7734375,0.45703125 v 0.3046875 c 0.328125,-0.01171875 0.8554687,-0.03515625 1.1015625,-0.03515625 0.2460937,0 0.7382812,0.0234375 1.1132812,0.03515625 v -0.3046875 c -0.6679687,0 -0.7851562,0 -0.7851562,-0.45703125 V -3.9832266 h 2.0976565 v 3.22265629 c 0,0.45703125 -0.117188,0.45703125 -0.7851565,0.45703125 v 0.3046875 C 10.20325,-0.01057031 10.672,-0.03400781 10.941531,-0.03400781 c 0.398438,0 0.867188,0 1.265625,0.03515625 v -0.3046875 h -0.210937 c -0.726563,0 -0.75,-0.1171875 -0.75,-0.46875 z M 8.468875,-4.2879141 v -1.125 c 0,-0.9726562 0.8085937,-1.3945312 1.4648437,-1.3945312 0.4804683,0 0.7617183,0.1992187 0.7734373,0.1992187 -0.175781,0.023437 -0.375,0.1523438 -0.375,0.4335938 0,0.058594 0.01172,0.3046875 0.28125,0.3984375 -0.02344,0.1289062 -0.02344,0.2226562 -0.02344,0.3398437 v 1.1484375 z m 5.235352,1.78125 c 0.05859,-1.4882812 0.902343,-1.734375 1.242187,-1.734375 1.019531,0 1.125,1.3476563 1.125,1.734375 z m -0.01172,0.2109375 h 2.789062 c 0.210938,0 0.246094,0 0.246094,-0.2109375 0,-0.984375 -0.539062,-1.9570312 -1.78125,-1.9570312 -1.160156,0 -2.074219,1.03125 -2.074219,2.2734375 0,1.33593749 1.042969,2.29687499 2.191407,2.29687499 1.21875,0 1.664062,-1.1015625 1.664062,-1.28906249 0,-0.1054688 -0.08203,-0.1171875 -0.128906,-0.1171875 -0.09375,0 -0.117188,0.058594 -0.128906,0.140625 -0.351563,1.01953124 -1.253907,1.01953124 -1.347657,1.01953124 -0.503906,0 -0.902343,-0.29296875 -1.125,-0.66796875 C 13.692508,-1.2879141 13.692508,-1.9441641 13.692508,-2.2957266 Z m 4.485351,0.1289063 c 0,-1.6289063 0.820313,-2.0507813 1.347657,-2.0507813 0.09375,0 0.714843,0.011719 1.066406,0.375 -0.410156,0.023437 -0.46875,0.328125 -0.46875,0.4570313 0,0.2578125 0.1875,0.4570312 0.457031,0.4570312 0.257813,0 0.457031,-0.1640625 0.457031,-0.46875 0,-0.6796875 -0.75,-1.0664062 -1.523437,-1.0664062 -1.242188,0 -2.15625,1.078125 -2.15625,2.3085937 0,1.27734379 0.984375,2.26171879 2.144531,2.26171879 1.335938,0 1.652344,-1.19531249 1.652344,-1.28906249 0,-0.1054688 -0.105469,-0.1054688 -0.128906,-0.1054688 -0.09375,0 -0.117188,0.046875 -0.128907,0.1054688 -0.292968,0.92578124 -0.9375,1.04296874 -1.3125,1.04296874 -0.527343,0 -1.40625,-0.421875 -1.40625,-2.02734374 z m 4.992188,-1.8164063 h 1.429687 v -0.3046875 h -1.429687 v -1.8398437 h -0.246094 c -0.01172,0.8203125 -0.316406,1.8867187 -1.289062,1.921875 v 0.2226562 h 0.84375 v 2.7539063 c 0,1.21874999 0.925781,1.33593749 1.289062,1.33593749 0.703125,0 0.984375,-0.703125 0.984375,-1.33593749 v -0.5742188 h -0.246094 v 0.5507813 c 0,0.73828124 -0.304687,1.11328124 -0.667968,1.11328124 -0.667969,0 -0.667969,-0.90234374 -0.667969,-1.07812504 z m 7.543945,2.0507813 c 0.222656,0.035156 1.03125,0.1992187 1.03125,0.9140625 0,0.51562499 -0.351562,0.91406249 -1.125,0.91406249 -0.832031,0 -1.195312,-0.57421875 -1.382812,-1.41796879 -0.03516,-0.1289062 -0.03516,-0.1757812 -0.140625,-0.1757812 -0.128907,0 -0.128907,0.070312 -0.128907,0.2578125 v 1.31249999 c 0,0.1640625 0,0.234375 0.105469,0.234375 0.05859,0 0.07031,0 0.257813,-0.19921875 0.01172,-0.01171875 0.01172,-0.03515625 0.199218,-0.22265625 0.433594,0.421875 0.878907,0.421875 1.089844,0.421875 1.148438,0 1.605469,-0.66796875 1.605469,-1.38281249 0,-0.5273438 -0.292969,-0.8203125 -0.421875,-0.9492188 -0.328125,-0.3164062 -0.714844,-0.3984375 -1.136719,-0.46875 -0.550781,-0.1171875 -1.21875,-0.2460937 -1.21875,-0.8203125 0,-0.3515625 0.257813,-0.7617187 1.113281,-0.7617187 1.101563,0 1.148438,0.9023437 1.171875,1.2070312 0,0.09375 0.09375,0.09375 0.117188,0.09375 0.128906,0 0.128906,-0.046875 0.128906,-0.2460937 v -0.9960938 c 0,-0.1757812 0,-0.2460937 -0.117187,-0.2460937 -0.04687,0 -0.07031,0 -0.199219,0.1171875 -0.02344,0.046875 -0.128906,0.1289062 -0.164063,0.1640625 -0.375,-0.28125 -0.785156,-0.28125 -0.9375,-0.28125 -1.21875,0 -1.59375,0.6679687 -1.59375,1.2304687 0,0.3398438 0.164063,0.6210938 0.433594,0.84375 0.316406,0.2578125 0.597656,0.3164063 1.3125,0.4570313 z m 3.612305,-2.4726563 -1.394531,0.1171875 v 0.3046875 c 0.65625,0 0.738281,0.058594 0.738281,0.5507813 v 2.67187499 c 0,0.45703125 -0.105469,0.45703125 -0.773438,0.45703125 v 0.3046875 c 0.316407,-0.01171875 0.855469,-0.03515625 1.101563,-0.03515625 0.339844,0 0.691406,0.0234375 1.03125,0.03515625 v -0.3046875 c -0.65625,0 -0.703125,-0.0585938 -0.703125,-0.4453125 z m 0.04687,-1.734375 c 0,-0.3164062 -0.246094,-0.5273437 -0.527344,-0.5273437 -0.316406,0 -0.527344,0.2695312 -0.527344,0.5273437 0,0.2695313 0.210938,0.5273438 0.527344,0.5273438 0.28125,0 0.527344,-0.1992188 0.527344,-0.5273438 z m 2.683594,2.15625 h 1.429687 V -4.2879141 H 37.05676 v -1.8398437 h -0.246094 c -0.01172,0.8203125 -0.316406,1.8867187 -1.289063,1.921875 v 0.2226562 h 0.84375 v 2.7539063 c 0,1.21874999 0.925782,1.33593749 1.289063,1.33593749 0.703125,0 0.984375,-0.703125 0.984375,-1.33593749 v -0.5742188 h -0.246094 v 0.5507813 c 0,0.73828124 -0.304687,1.11328124 -0.667969,1.11328124 -0.667968,0 -0.667968,-0.90234374 -0.667968,-1.07812504 z m 3.266601,1.4765625 c 0.05859,-1.4882812 0.902344,-1.734375 1.242188,-1.734375 1.019531,0 1.125,1.3476563 1.125,1.734375 z m -0.01172,0.2109375 h 2.789063 c 0.210937,0 0.246094,0 0.246094,-0.2109375 0,-0.984375 -0.539063,-1.9570312 -1.78125,-1.9570312 -1.160157,0 -2.074219,1.03125 -2.074219,2.2734375 0,1.33593749 1.042969,2.29687499 2.191406,2.29687499 1.21875,0 1.664063,-1.1015625 1.664063,-1.28906249 0,-0.1054688 -0.08203,-0.1171875 -0.128907,-0.1171875 -0.09375,0 -0.117187,0.058594 -0.128906,0.140625 -0.351562,1.01953124 -1.253906,1.01953124 -1.347656,1.01953124 -0.503906,0 -0.902344,-0.29296875 -1.125,-0.66796875 C 40.311648,-1.2879141 40.311648,-1.9441641 40.311648,-2.2957266 Z m 7.918946,1.53515629 1.054687,-1.03124999 c 1.558594,-1.3710938 2.15625,-1.9101563 2.15625,-2.90625 0,-1.1367188 -0.902344,-1.9335938 -2.121094,-1.9335938 -1.125,0 -1.851562,0.9140625 -1.851562,1.8046875 0,0.5507813 0.492187,0.5507813 0.527344,0.5507813 0.164062,0 0.515625,-0.1171875 0.515625,-0.5273438 0,-0.2578125 -0.1875,-0.515625 -0.527344,-0.515625 -0.08203,0 -0.105469,0 -0.128906,0.011719 0.222656,-0.6445313 0.761718,-1.0195313 1.335937,-1.0195313 0.914063,0 1.335938,0.8085938 1.335938,1.6289063 0,0.796875 -0.492188,1.5820312 -1.042969,2.203125 l -1.910156,2.13281249 c -0.105469,0.10546875 -0.105469,0.12890625 -0.105469,0.36328125 h 3.691406 l 0.28125,-1.73437504 h -0.257812 c -0.04687,0.3046875 -0.117188,0.73828129 -0.210938,0.89062504 -0.07031,0.0820313 -0.726562,0.0820313 -0.949219,0.0820313 z M 58.557742,2.3917734 c 0,-0.035156 0,-0.046875 -0.164062,-0.2226562 -1.242188,-1.25390626 -1.570313,-3.12890626 -1.570313,-4.6640625 0,-1.7226563 0.386719,-3.4570313 1.605469,-4.7109375 0.128906,-0.1171875 0.128906,-0.1289063 0.128906,-0.1640625 0,-0.070312 -0.03516,-0.1054688 -0.09375,-0.1054688 -0.105469,0 -0.996094,0.6796875 -1.582031,1.9453125 -0.515625,1.1015625 -0.632813,2.203125 -0.632813,3.0351563 0,0.7851562 0.117188,1.99218749 0.65625,3.11718749 0.597657,1.21875001 1.453125,1.87500001 1.558594,1.87500001 0.05859,0 0.09375,-0.035156 0.09375,-0.1054688 z m 3.714844,-9.3046875 -1.335938,1.359375 0.175782,0.1757813 1.160156,-1.0195313 1.136719,1.0195313 0.1875,-0.1757813 z m 0,0"
         style="fill:#000000;fill-opacity:1;fill-rule:nonzero;stroke:none" />
      <path
         id="path41"
         d="m 62.465945,-3.0105703 c 0.05859,-0.2578125 0.292969,-1.171875 0.984375,-1.171875 0.04687,0 0.292969,0 0.503907,0.1289062 -0.28125,0.046875 -0.480469,0.3046875 -0.480469,0.5390625 0,0.1640625 0.105469,0.3515625 0.375,0.3515625 0.222656,0 0.539062,-0.1875 0.539062,-0.5859375 0,-0.515625 -0.585937,-0.65625 -0.925781,-0.65625 -0.574219,0 -0.925781,0.5273438 -1.042969,0.7617188 -0.257812,-0.65625 -0.785156,-0.7617188 -1.078125,-0.7617188 -1.042968,0 -1.605468,1.2890625 -1.605468,1.5351563 0,0.1054687 0.105468,0.1054687 0.117187,0.1054687 0.08203,0 0.117188,-0.023437 0.128906,-0.1171875 0.339844,-1.0546875 0.996094,-1.3007812 1.335938,-1.3007812 0.1875,0 0.539062,0.09375 0.539062,0.6679687 0,0.3046875 -0.164062,0.9726563 -0.539062,2.3671875 -0.152344,0.62109379 -0.503906,1.04296879 -0.949219,1.04296879 -0.05859,0 -0.28125,0 -0.492187,-0.12890625 0.246093,-0.0585938 0.46875,-0.26953125 0.46875,-0.5390625 0,-0.26953124 -0.222657,-0.35156254 -0.375,-0.35156254 -0.292969,0 -0.539063,0.25781254 -0.539063,0.57421879 0,0.45703125 0.492188,0.65625 0.9375,0.65625 0.65625,0 1.007813,-0.69140625 1.042969,-0.75 0.117187,0.36328125 0.480469,0.75 1.078125,0.75 1.019531,0 1.59375,-1.27734379 1.59375,-1.53515629 0,-0.09375 -0.09375,-0.09375 -0.128906,-0.09375 -0.08203,0 -0.105469,0.035156 -0.128907,0.1054688 -0.328125,1.06640624 -0.996093,1.31249999 -1.324218,1.31249999 -0.386719,0 -0.539063,-0.328125 -0.539063,-0.65625 0,-0.22265625 0.05859,-0.44531249 0.164063,-0.87890629 z m 0,0"
         style="fill:#000000;fill-opacity:1;fill-rule:nonzero;stroke:none" />
      <path
         id="path42"
         d="m 66.391727,-0.09846094 c 0.199218,0 0.75,-0.01171875 1.125,-0.140625 0.515625,-0.1875 0.609375,-0.515625 0.609375,-0.7265625 0,-0.38671876 -0.375,-0.60937496 -0.855469,-0.60937496 -0.84375,0 -1.96875,0.63281246 -1.96875,1.82812496 0,0.703125 0.433594,1.31250004 1.253906,1.31250004 1.183594,0 1.734375,-0.69140629 1.734375,-0.78515629 0,-0.046875 -0.07031,-0.1171875 -0.128906,-0.1171875 -0.03516,0 -0.04687,0.0117188 -0.105469,0.0703125 -0.550781,0.63281249 -1.359375,0.63281249 -1.488281,0.63281249 -0.421875,0 -0.691406,-0.28125 -0.691406,-0.84374999 0,-0.09375 0,-0.234375 0.08203,-0.62109375 z m -0.375,-0.1875 c 0.28125,-1.01953126 1.054687,-1.10156246 1.253906,-1.10156246 0.304687,0 0.5625,0.1523437 0.5625,0.42187496 0,0.6796875 -1.183594,0.6796875 -1.476563,0.6796875 z M 71.61243,-1.1297109 c -0.175782,0.046875 -0.292969,0.18749996 -0.292969,0.32812496 0,0.1640625 0.140625,0.22265625 0.234375,0.22265625 0.07031,0 0.339844,-0.0351563 0.339844,-0.3984375 0,-0.44531251 -0.503907,-0.59765621 -0.925782,-0.59765621 -1.089843,0 -1.289062,0.79687496 -1.289062,1.00781246 0,0.2578125 0.152344,0.43359375 0.246094,0.515625 0.175781,0.140625 0.304687,0.1640625 0.785156,0.24609375 0.152344,0.0351563 0.597656,0.1171875 0.597656,0.46875 0,0.1171875 -0.08203,0.37499999 -0.375,0.55078129 -0.269531,0.1523437 -0.609375,0.1523437 -0.691406,0.1523437 -0.28125,0 -0.679688,-0.058594 -0.84375,-0.2929687 0.234375,-0.023437 0.386719,-0.19921879 0.386719,-0.39843754 0,-0.1640625 -0.128907,-0.2578125 -0.269532,-0.2578125 -0.199218,0 -0.410156,0.1640625 -0.410156,0.46875 0,0.42187504 0.445313,0.67968754 1.125,0.67968754 1.289063,0 1.523438,-0.87890629 1.523438,-1.14843754 0,-0.64453125 -0.703125,-0.7734375 -0.960938,-0.8203125 -0.07031,-0.0117188 -0.246094,-0.0351563 -0.28125,-0.0585938 -0.257812,-0.046875 -0.386719,-0.1875 -0.386719,-0.33984375 0,-0.1640625 0.128907,-0.35156251 0.28125,-0.44531251 0.1875,-0.1289063 0.433594,-0.140625 0.550782,-0.140625 0.140625,0 0.503906,0.023437 0.65625,0.2578126 z m 0,0"
         style="fill:#000000;fill-opacity:1;fill-rule:nonzero;stroke:none" />
      <path
         id="path43"
         d="m 75.755008,-2.4949453 c 0,-0.7734375 -0.117188,-1.9804688 -0.65625,-3.1054688 -0.597656,-1.21875 -1.464844,-1.875 -1.558594,-1.875 -0.05859,0 -0.105469,0.046875 -0.105469,0.1054688 0,0.035156 0,0.046875 0.199219,0.234375 0.972656,0.984375 1.535156,2.5664062 1.535156,4.640625 0,1.71093749 -0.363281,3.45703124 -1.59375,4.7226562 -0.140625,0.1171875 -0.140625,0.1289063 -0.140625,0.1640625 0,0.058594 0.04687,0.1054688 0.105469,0.1054688 0.09375,0 0.996094,-0.6796875 1.582031,-1.94531251 0.503907,-1.1015625 0.632813,-2.20312499 0.632813,-3.04687499 z m 0,0"
         style="fill:#000000;fill-opacity:1;fill-rule:nonzero;stroke:none" />
    </g>
    <path
       id="path44"
       d="M 81.351754,80.732901 V 136.78378"
       style="fill:none;stroke:#000000;stroke-width:0.531333;stroke-linecap:butt;stroke-linejoin:miter;stroke-miterlimit:10;stroke-dasharray:none;stroke-opacity:1" />
    <path
       id="path45"
       d="m 84.539807,134.28646 c -1.912866,0.50479 -2.816119,1.62967 -3.188053,2.76299 -0.371933,-1.13332 -1.275186,-2.2582 -3.188053,-2.76299"
       style="fill:none;stroke:#000000;stroke-width:0.531333;stroke-linecap:round;stroke-linejoin:round;stroke-miterlimit:10;stroke-dasharray:none;stroke-opacity:1" />
    <g
       id="g45"
       aria-label="k&#10;e0"
       transform="matrix(1.3333333,0,0,1.3333333,58.745087,112.6394)">
      <path
         id="path46"
         d="m 2.860265,-6.8075938 c 0,0 0,-0.1054687 -0.1289063,-0.1054687 -0.234375,0 -0.9609375,0.082031 -1.21875,0.1054687 -0.082031,0 -0.1875,0.011719 -0.1875,0.1992188 0,0.1171875 0.09375,0.1171875 0.234375,0.1171875 0.4804688,0 0.5039063,0.070312 0.5039063,0.1640625 l -0.035156,0.1992187 -1.4414062,5.74218755 c -0.0351563,0.140625 -0.0351563,0.15234375 -0.0351563,0.22265625 0,0.22265625 0.19921875,0.26953125 0.28125,0.26953125 0.12890625,0 0.2812499,-0.08203125 0.3398437,-0.2109375 0.058594,-0.0820313 0.5039062,-1.92187505 0.5625,-2.17968755 0.3398437,0.035156 1.1601562,0.1875 1.1601562,0.8554688 0,0.070312 0,0.1054687 -0.035156,0.1992187 -0.023437,0.1289063 -0.035156,0.2460938 -0.035156,0.35156255 0,0.5859375 0.3984375,0.984375 0.9140625,0.984375 0.2929688,0 0.5625,-0.15234375 0.7851563,-0.52734375 0.2460937,-0.43359375 0.3632812,-0.984375 0.3632812,-1.0078125 0,-0.09375 -0.09375,-0.09375 -0.1289062,-0.09375 -0.09375,0 -0.1054688,0.035156 -0.140625,0.1757812 -0.1992188,0.72656255 -0.421875,1.24218755 -0.8671875,1.24218755 -0.1875,0 -0.3164063,-0.1171875 -0.3164063,-0.46875 0,-0.17578125 0.046875,-0.3984375 0.082031,-0.56250005 0.035156,-0.1640625 0.035156,-0.2109375 0.035156,-0.3046875 0,-0.65625 -0.6210937,-0.9375 -1.4648437,-1.0546875 C 2.391515,-2.670875 2.7079212,-2.9872813 2.9422962,-3.2216563 3.422765,-3.749 3.8797962,-4.1825938 4.360265,-4.1825938 c 0.058594,0 0.070312,0 0.09375,0.011719 0.1171875,0.023437 0.1289062,0.023437 0.2109375,0.082031 0.023437,0 0.023437,0.011719 0.035156,0.035156 -0.4804687,0.035156 -0.5625,0.421875 -0.5625,0.5390625 0,0.1640625 0.1054688,0.3515625 0.375,0.3515625 0.2578125,0 0.5507813,-0.2226563 0.5507813,-0.609375 0,-0.3046875 -0.234375,-0.6328125 -0.6796875,-0.6328125 -0.28125,0 -0.7382813,0.082031 -1.453125,0.8789062 -0.3398438,0.375 -0.7265625,0.7734375 -1.1015625,0.9257813 z m 0,0"
         style="fill:#000000;fill-opacity:1;fill-rule:nonzero;stroke:none" />
      <path
         id="path47"
         d="m 6.7450306,-0.09860938 c 0.1992188,0 0.75,-0.01171875 1.125,-0.140625 0.515625,-0.1875 0.609375,-0.515625 0.609375,-0.7265625 0,-0.38671872 -0.375,-0.60937502 -0.8554687,-0.60937502 -0.84375,0 -1.96875,0.63281252 -1.96875,1.82812502 0,0.703125 0.4335937,1.31249998 1.2539062,1.31249998 1.1835938,0 1.734375,-0.69140623 1.734375,-0.78515623 0,-0.046875 -0.070312,-0.1171875 -0.1289062,-0.1171875 -0.035156,0 -0.046875,0.0117188 -0.1054688,0.0703125 C 7.8583119,1.3662344 7.0497181,1.3662344 6.9208119,1.3662344 c -0.421875,0 -0.6914063,-0.28125 -0.6914063,-0.84375003 0,-0.09375 0,-0.234375 0.082031,-0.62109375 z m -0.375,-0.1875 c 0.28125,-1.01953122 1.0546875,-1.10156252 1.2539063,-1.10156252 0.3046875,0 0.5625,0.1523438 0.5625,0.42187502 0,0.6796875 -1.1835938,0.6796875 -1.4765625,0.6796875 z m 0,0"
         style="fill:#000000;fill-opacity:1;fill-rule:nonzero;stroke:none" />
      <path
         id="path48"
         d="m 12.56339,-0.73142188 c 0,-0.76171872 -0.09375,-1.31250002 -0.410156,-1.80468752 -0.222657,-0.3164062 -0.644532,-0.5976562 -1.207032,-0.5976562 -1.617187,0 -1.617187,1.8984375 -1.617187,2.40234372 0,0.50390625 0,2.36718748 1.617187,2.36718748 1.617188,0 1.617188,-1.86328123 1.617188,-2.36718748 z M 10.946202,1.4365469 c -0.316406,0 -0.75,-0.1875 -0.890625,-0.76171878 -0.093749,-0.41015625 -0.093749,-0.984375 -0.093749,-1.5 0,-0.50390622 0,-1.03125002 0.105468,-1.41796872 0.152344,-0.5507813 0.597657,-0.6914063 0.878907,-0.6914063 0.375,0 0.738282,0.2226563 0.867188,0.6328125 0.105469,0.375 0.117187,0.8789063 0.117187,1.47656252 0,0.515625 0,1.04296875 -0.09375,1.4765625 C 11.696202,1.2842031 11.227452,1.4365469 10.946202,1.4365469 Z m 0,0"
         style="fill:#000000;fill-opacity:1;fill-rule:nonzero;stroke:none" />
    </g>
    <path
       id="path49"
       d="m 156.10733,154.58875 h 38.93619"
       style="fill:none;stroke:#000000;stroke-width:0.531333;stroke-linecap:butt;stroke-linejoin:miter;stroke-miterlimit:10;stroke-dasharray:none;stroke-opacity:1" />
    <path
       id="path50"
       d="m 192.54623,151.40071 c 0.50479,1.91286 1.62967,2.81612 2.76299,3.18805 -1.13332,0.37193 -2.2582,1.27519 -2.76299,3.18805"
       style="fill:none;stroke:#000000;stroke-width:0.531333;stroke-linecap:round;stroke-linejoin:round;stroke-miterlimit:10;stroke-dasharray:none;stroke-opacity:1" />
    <g
       id="g50"
       aria-label="1/"
       transform="matrix(1.3333333,0,0,1.3333333,165.54294,146.57406)">
      <path
         id="path51"
         d="m 2.9298438,-6.3748047 c 0,-0.234375 0,-0.2578125 -0.234375,-0.2578125 -0.609375,0.6328125 -1.4882813,0.6328125 -1.80468755,0.6328125 v 0.3164063 c 0.19921875,0 0.78515625,0 1.30078125,-0.2578125 v 5.15624996 c 0,0.3515625 -0.035156,0.48046875 -0.9257812,0.48046875 H 0.949375 V 1.953125e-4 C 1.3009375,-0.03496094 2.1564063,-0.03496094 2.5548438,-0.03496094 c 0.3984375,0 1.265625,0 1.6171875,0.0351562525 V -0.30449219 H 3.855625 c -0.9023437,0 -0.9257812,-0.1171875 -0.9257812,-0.48046875 z m 0,0"
         style="fill:#000000;fill-opacity:1;fill-rule:nonzero;stroke:none" />
      <path
         id="path52"
         d="m 9.3517188,-7.0896484 c 0.046875,-0.1289063 0.046875,-0.1757813 0.046875,-0.1875 0,-0.1054688 -0.082031,-0.1992188 -0.1992188,-0.1992188 -0.070312,0 -0.1289062,0.035156 -0.1640625,0.09375 L 5.5782813,2.1095703 c -0.046875,0.1289063 -0.046875,0.1757813 -0.046875,0.1875 0,0.1054688 0.082031,0.1992188 0.1992187,0.1992188 0.1289063,0 0.1523438,-0.070312 0.2109375,-0.2460938 z m 3.5419922,3.375 h 1.675781 c 0.128906,0 0.480469,0 0.480469,-0.3398438 0,-0.234375 -0.199219,-0.234375 -0.398438,-0.234375 h -2.789062 c -0.199219,0 -0.585938,0 -1.019531,0.46875 -0.328125,0.3515625 -0.609375,0.8320313 -0.609375,0.890625 0,0.011719 0,0.1054688 0.117187,0.1054688 0.08203,0 0.105469,-0.046875 0.164063,-0.1289063 0.480468,-0.7617187 1.054687,-0.7617187 1.265625,-0.7617187 h 0.820312 l -0.972656,3.19921871 c -0.03516,0.1171875 -0.105469,0.328125 -0.105469,0.36328125 0,0.1171875 0.07031,0.26953125 0.292969,0.26953125 0.328125,0 0.375,-0.28125 0.410156,-0.421875 z m 0,0"
         style="fill:#000000;fill-opacity:1;fill-rule:nonzero;stroke:none" />
    </g>
    <path
       id="path53"
       d="M 44.391875,154.58875 H 6.2915561"
       style="fill:none;stroke:#000000;stroke-width:0.531333;stroke-linecap:butt;stroke-linejoin:miter;stroke-miterlimit:10;stroke-dasharray:none;stroke-opacity:1" />
    <path
       id="path54"
       d="m 8.7888739,157.77681 c -0.504787,-1.91286 -1.6296665,-2.81612 -2.7629864,-3.18805 1.1333199,-0.37193 2.2581994,-1.27519 2.7629864,-3.18805"
       style="fill:none;stroke:#000000;stroke-width:0.531333;stroke-linecap:round;stroke-linejoin:round;stroke-miterlimit:10;stroke-dasharray:none;stroke-opacity:1" />
    <g
       id="g54"
       aria-label="k&#10;e0"
       transform="matrix(1.3333333,0,0,1.3333333,16.120274,147.90206)">
      <path
         id="path55"
         d="m 2.860125,-6.8083047 c 0,0 0,-0.1054687 -0.1289062,-0.1054687 -0.234375,0 -0.9609375,0.082031 -1.21875,0.1054687 -0.082031,0 -0.1875,0.011719 -0.1875,0.1992188 0,0.1171875 0.09375,0.1171875 0.234375,0.1171875 0.4804687,0 0.5039062,0.070312 0.5039062,0.1640625 l -0.035156,0.1992187 -1.4414063,5.74218751 c -0.0351563,0.140625 -0.0351563,0.15234375 -0.0351563,0.22265625 0,0.22265625 0.19921875,0.26953125 0.28125,0.26953125 0.12890625,0 0.28125,-0.08203125 0.3398437,-0.2109375 0.058594,-0.0820312 0.5039064,-1.92187501 0.5625,-2.17968751 0.3398439,0.035156 1.1601563,0.1875 1.1601563,0.8554688 0,0.070312 0,0.1054687 -0.035156,0.1992187 -0.023437,0.1289063 -0.035156,0.24609376 -0.035156,0.35156251 0,0.5859375 0.3984375,0.984375 0.9140625,0.984375 0.2929687,0 0.5625,-0.15234375 0.7851562,-0.52734375 0.2460938,-0.43359375 0.3632813,-0.98437496 0.3632813,-1.00781246 0,-0.09375 -0.09375,-0.09375 -0.1289063,-0.09375 -0.09375,0 -0.1054687,0.035156 -0.140625,0.1757812 -0.1992187,0.72656251 -0.421875,1.24218751 -0.8671875,1.24218751 -0.1875,0 -0.3164062,-0.1171875 -0.3164062,-0.46875 0,-0.17578125 0.046875,-0.3984375 0.082031,-0.56250001 0.035156,-0.1640625 0.035156,-0.2109375 0.035156,-0.3046875 0,-0.65625 -0.6210938,-0.9375 -1.4648438,-1.0546875 0.3046875,-0.1757812 0.6210938,-0.4921875 0.8554688,-0.7265625 0.4804687,-0.5273437 0.9375,-0.9609375 1.4179686,-0.9609375 0.058594,0 0.070312,0 0.09375,0.011719 0.1171875,0.023437 0.1289063,0.023437 0.2109375,0.082031 0.023437,0 0.023437,0.011719 0.035156,0.035156 -0.4804688,0.035156 -0.5625,0.421875 -0.5625,0.5390625 0,0.1640625 0.1054687,0.3515625 0.375,0.3515625 0.2578125,0 0.5507812,-0.2226563 0.5507812,-0.609375 0,-0.3046875 -0.234375,-0.6328125 -0.6796875,-0.6328125 -0.28125,0 -0.7382811,0.082031 -1.4531249,0.8789062 -0.3398437,0.375 -0.7265625,0.7734375 -1.1015626,0.9257813 z m 0,0"
         style="fill:#000000;fill-opacity:1;fill-rule:nonzero;stroke:none" />
      <path
         id="path56"
         d="m 6.7448906,-0.09932031 c 0.1992188,0 0.75,-0.01171875 1.125,-0.140625 0.515625,-0.1875 0.609375,-0.515625 0.609375,-0.7265625 0,-0.38671879 -0.375,-0.60937499 -0.8554687,-0.60937499 -0.84375,0 -1.96875,0.63281249 -1.96875,1.82812499 0,0.703125 0.4335937,1.31250001 1.2539062,1.31250001 1.1835938,0 1.734375,-0.69140626 1.734375,-0.78515626 0,-0.046875 -0.070312,-0.1171875 -0.1289062,-0.1171875 -0.035156,0 -0.046875,0.0117188 -0.1054688,0.0703125 C 7.8581719,1.3655234 7.0495781,1.3655234 6.9206719,1.3655234 c -0.421875,0 -0.6914063,-0.28125 -0.6914063,-0.84374996 0,-0.09375 0,-0.234375 0.082031,-0.62109375 z m -0.375,-0.1875 c 0.28125,-1.01953129 1.0546875,-1.10156249 1.2539063,-1.10156249 0.3046875,0 0.5625,0.1523437 0.5625,0.42187499 0,0.6796875 -1.1835938,0.6796875 -1.4765625,0.6796875 z m 0,0"
         style="fill:#000000;fill-opacity:1;fill-rule:nonzero;stroke:none" />
      <path
         id="path57"
         d="m 12.56325,-0.73213281 c 0,-0.76171879 -0.09375,-1.31249999 -0.410156,-1.80468749 -0.222656,-0.3164063 -0.644531,-0.5976563 -1.207031,-0.5976563 -1.617188,0 -1.617188,1.8984375 -1.617188,2.40234379 0,0.50390625 0,2.36718751 1.617188,2.36718751 1.617187,0 1.617187,-1.86328126 1.617187,-2.36718751 z M 10.946063,1.4358359 c -0.316407,0 -0.75,-0.1875 -0.890625,-0.76171871 -0.093751,-0.41015625 -0.093751,-0.984375 -0.093751,-1.5 0,-0.50390629 0,-1.03124999 0.105469,-1.41796879 0.152344,-0.5507812 0.597657,-0.6914062 0.878907,-0.6914062 0.375,0 0.738281,0.2226562 0.867187,0.6328125 0.105469,0.375 0.117188,0.8789062 0.117188,1.47656249 0,0.515625 0,1.04296875 -0.09375,1.4765625 C 11.696063,1.2834922 11.227313,1.4358359 10.946063,1.4358359 Z m 0,0"
         style="fill:#000000;fill-opacity:1;fill-rule:nonzero;stroke:none" />
    </g>
    <path
       id="path58"
       d="m 307.29034,154.58875 h 38.10032"
       style="fill:none;stroke:#000000;stroke-width:0.531333;stroke-linecap:butt;stroke-linejoin:miter;stroke-miterlimit:10;stroke-dasharray:none;stroke-opacity:1" />
    <path
       id="path59"
       d="m 342.89335,151.40071 c 0.50479,1.91286 1.62967,2.81612 2.76299,3.18805 -1.13332,0.37193 -2.2582,1.27519 -2.76299,3.18805"
       style="fill:none;stroke:#000000;stroke-width:0.531333;stroke-linecap:round;stroke-linejoin:round;stroke-miterlimit:10;stroke-dasharray:none;stroke-opacity:1" />
    <g
       id="g59"
       aria-label="1/"
       transform="matrix(1.3333333,0,0,1.3333333,316.30694,146.57406)">
      <path
         id="path60"
         d="m 2.9310625,-6.3748047 c 0,-0.234375 0,-0.2578125 -0.234375,-0.2578125 C 2.0873125,-5.9998047 1.2084063,-5.9998047 0.892,-5.9998047 v 0.3164063 c 0.1992188,0 0.7851563,0 1.3007813,-0.2578125 v 5.15624996 c 0,0.3515625 -0.035156,0.48046875 -0.9257813,0.48046875 H 0.95059375 V 1.953125e-4 C 1.3021563,-0.03496094 2.157625,-0.03496094 2.5560625,-0.03496094 c 0.3984375,0 1.265625,0 1.6171875,0.0351562525 V -0.30449219 H 3.8568438 c -0.9023438,0 -0.9257813,-0.1171875 -0.9257813,-0.48046875 z m 0,0"
         style="fill:#000000;fill-opacity:1;fill-rule:nonzero;stroke:none" />
      <path
         id="path61"
         d="m 9.3529375,-7.0896484 c 0.046875,-0.1289063 0.046875,-0.1757813 0.046875,-0.1875 0,-0.1054688 -0.082031,-0.1992188 -0.1992187,-0.1992188 -0.070312,0 -0.1289063,0.035156 -0.1640625,0.09375 L 5.5795,2.1095703 c -0.046875,0.1289063 -0.046875,0.1757813 -0.046875,0.1875 0,0.1054688 0.082031,0.1992188 0.1992188,0.1992188 0.1289062,0 0.1523437,-0.070312 0.2109375,-0.2460938 z m 3.5390625,3.375 h 1.675781 c 0.128907,0 0.480469,0 0.480469,-0.3398438 0,-0.234375 -0.199219,-0.234375 -0.398437,-0.234375 H 11.86075 c -0.199219,0 -0.585937,0 -1.019531,0.46875 -0.328125,0.3515625 -0.609375,0.8320313 -0.609375,0.890625 0,0.011719 0,0.1054688 0.117187,0.1054688 0.08203,0 0.105469,-0.046875 0.164063,-0.1289063 0.480469,-0.7617187 1.054687,-0.7617187 1.265625,-0.7617187 h 0.820312 l -0.972656,3.19921871 c -0.03516,0.1171875 -0.105469,0.328125 -0.105469,0.36328125 0,0.1171875 0.07031,0.26953125 0.292969,0.26953125 0.328125,0 0.375,-0.28125 0.410156,-0.421875 z m 0,0"
         style="fill:#000000;fill-opacity:1;fill-rule:nonzero;stroke:none" />
    </g>
  </g>
</svg>
